P3
5 5
255
  0  64 255   0  18  73   0   0   0   0  18  73   0  64 255 
  0  18  73   0   0   0   0   0   0   0   0   0   0  18  73 
  0   0   0   0   0   0   0   0   0   0   0   0   0   0   0 
  0  18  73   0   0   0   0   0   0   0   0   0   0  18  73 
  0  64 255   0  18  73   0   0   0   0  18  73   0  64 255 
