P3
10 10
255
  0  64 255  91 132 255 166 189 255 222 230 255 251 252 255 251 252 255 222 230 255 166 189 255  91 132 255   0  64 255 
 91 132 255 193 209 255 255 255 255 255 255 255 255 255 255 255 255 255 255 255 255 255 255 255 193 209 255  91 132 255 
166 189 255 255 255 255 255 255 255 255 255 255 255 255 255 255 255 255 255 255 255 255 255 255 255 255 255 166 189 255 
222 230 255 255 255 255 255 255 255 255 255 255 255 255 255 255 255 255 255 255 255 255 255 255 255 255 255 222 230 255 
251 252 255 255 255 255 255 255 255 255 255 255 255 255 255 255 255 255 255 255 255 255 255 255 255 255 255 251 252 255 
251 252 255 255 255 255 255 255 255 255 255 255 255 255 255 255 255 255 255 255 255 255 255 255 255 255 255 251 252 255 
222 230 255 255 255 255 255 255 255 255 255 255 255 255 255 255 255 255 255 255 255 255 255 255 255 255 255 222 230 255 
166 189 255 255 255 255 255 255 255 255 255 255 255 255 255 255 255 255 255 255 255 255 255 255 255 255 255 166 189 255 
 91 132 255 193 209 255 255 255 255 255 255 255 255 255 255 255 255 255 255 255 255 255 255 255 193 209 255  91 132 255 
  0  64 255  91 132 255 166 189 255 222 230 255 251 252 255 251 252 255 222 230 255 166 189 255  91 132 255   0  64 255 
