P3
60 65
255
  0  64 255   0  61 244   1  58 233   1  56 223   2  53 213   2  50 203   2  48 193   3  45 183   3  43 175   5  42 166   5  39 158   6  38 150   6  35 142   6  35 135   7  33 128   7  30 120   6  30 114   3  27 107   1  25 102   4  26 101   3  23  95   4  22  89   5  21  86   5  20  83   7  21  83   6  19  81   6  18  80   8  20  78   8  20  77   7  19  77  11  20  78  11  20  78  11  20  79  12  23  82  10  23  83   9  21  82   9  21  84   8  21  86   8  22  91   7  22  94   7  23  98   7  25 104   8  28 113   8  30 119   8  32 126   7  33 132   8  36 140   7  37 146   6  38 153   6  41 162   5  42 170   4  45 179   4  48 188   3  49 196   3  51 206   2  54 215   1  56 225   1  59 234   1  61 245   0  64 255 
  1  61 243   1  58 232   1  55 221   2  53 211   3  50 200   3  47 190   3  45 180   3  42 171   4  40 161   5  38 153   5  35 144   6  33 135   7  32 128   8  31 121   8  29 114   7  26 105   7  26  99   4  22  92   4  21  89   5  20  83   6  20  79   5  18  73   6  18  71   8  18  69   7  16  67   8  15  65  10  16  64  10  15  62  10  15  61  12  18  62  13  18  63  13  18  64  12  17  65  11  17  66  10  17  69  12  19  70  10  18  72   9  17  73  10  19  78   9  20  80   8  20  83   9  22  92   8  24  99   9  27 106   8  28 112   8  29 118   7  30 124   6  32 131   6  35 140   6  37 149   5  40 157   5  41 165   5  44 175   3  46 184   3  49 194   2  52 204   2  54 213   2  56 223   2  59 233   1  61 244 
  1  58 232   2  55 221   2  53 210   2  50 199   3  47 189   3  44 178   3  42 168   4  40 158   4  36 148   6  34 139   7  33 131   6  30 122   7  28 113   9  28 107   8  26 100   9  23  92   8  22  85   8  20  78   8  18  75   8  16  68   7  13  61   5  13  57   8  15  56   9  15  55  10  11  49  12  14  50  14  15  49  12  15  48  12  14  46  13  14  48  15  14  49  15  15  50  11  14  49  12  14  51  12  13  52  11  13  53  11  14  57  12  13  60  11  14  63  10  16  65  10  17  71  11  19  80  10  22  87   9  24  94   8  25  99   7  26 105   7  28 112   6  30 118   8  32 127   7  35 136   6  37 146   4  39 153   5  42 163   4  44 172   3  46 182   3  49 192   2  51 202   2  53 211   2  56 222   2  59 233 
  2  55 221   3  53 210   3  50 199   3  47 188   4  44 178   3  41 166   3  38 155   3  36 146   4  33 135   5  31 127   8  30 119   7  26 108   8  25 100   8  23  92   8  21  84   9  20  78  12  20  72   9  16  63  10  15  60   9  12  55   8  10  49   6  10  44   9   9  41  11   9  38  14  10  37  15  12  39  15  13  40  14  14  42  13  13  40  12  10  42  12   9  39  13  10  39  11  11  41  12  12  42  12  11  42  11   8  37  11   9  40  13  12  46  12  11  49  12  12  53  13  16  61  11  17  66  10  19  74  11  21  81   9  21  86   9  24  93   8  25 100   7  26 107   7  28 115   6  30 124   7  34 133   5  36 141   5  40 151   5  41 161   4  43 171   4  45 180   4  48 190   3  50 200   2  53 210   2  56 222 
  2  52 209   3  49 198   3  47 187   4  43 176   4  41 166   5  39 155   4  35 144   3  33 133   4  30 125   5  28 116   8  26 106   8  24  95   7  21  86   9  19  78   8  16  69   9  15  63  11  15  56  10  13  49  11  12  46  10   9  40  11   8  37  10   9  40  12  10  38  13  10  37  13   9  36  15  11  37  23  21  41  25  26  42  28  28  51  22  22  46  14  12  38  12   9  38  11  11  37  13  12  40  12  11  42  11   8  37  11   8  37  12  10  39  12  10  41  12  10  43  14  13  46  13  15  54  11  15  60  12  18  67   9  18  72  10  20  80   9  22  87   7  23  94   6  24 102   7  27 111   6  29 120   8  34 130   7  36 138   5  38 149   5  41 159   5  43 170   4  45 178   3  47 189   3  50 200   2  53 211 
  3  49 198   3  46 187   3  43 175   4  41 164   4  38 153   5  36 143   6  33 133   5  29 122   4  27 112   5  25 103   7  22  93   9  21  83   9  18  73   8  14  63   9  13  55   8  10  47  10   9  40  11   8  33  14   9  33  12   9  37  11   9  37  10  11  39  13  11  39  13  10  37  15  14  32  95  93  99 166 164 159 206 205 197 207 205 197 167 165 163  94  94 101  13  11  32  12   9  37  12   9  36  13  10  38   9   9  37  10  10  38  12  11  43  12  11  42  10   9  40  13   9  41  12  10  41  11  11  45  11  14  52  10  14  59  11  16  63  11  18  72  10  19  79   6  20  88   7  23  98   7  27 107   7  30 116   8  34 127   7  35 137   7  38 147   6  41 158   6  42 167   5  45 177   3  48 189   3  51 201 
  3  47 188   4  44 176   4  41 163   4  38 152   5  35 142   5  32 130   6  30 121   7  27 111   6  25  99   7  22  89   6  18  78   8  18  69  10  14  60   9  11  50   9   9  41  11   8  34  12   8  30  13   9  34  14  10  36  15   9  40  12  10  40  15  12  41  15  13  43  11   9  28 160 159 156 242 236 222 254 248 230 252 246 227 253 248 229 255 251 238 246 245 237 163 164 165   3   3  21  13  12  40  12  10  41  11  12  40  10  11  39  11  11  41  12  12  42  11  11  40  11  10  38  12  11  41  13  13  41  11  10  41  10  10  44  10  12  52  10  15  60  10  17  68   8  19  77   9  22  87   8  25  95   8  28 105   7  30 115   8  33 124   8  36 136   7  38 146   6  40 157   6  43 168   5  45 178   3  48 189 
  3  44 177   4  40 164   5  38 153   5  34 141   6  32 130   4  29 118   5  26 109   6  23  98   8  23  88   7  19  76   7  15  65   7  13  54  11  11  46  10   8  36  10   6  29  11   7  30  11   7  29  12   8  34  13   9  36  17  12  41  19  10  40  24  11  40   5   0  24 140 139 139 241 231 216 250 243 223 255 252 236 255 255 243 252 252 240 247 242 227 248 243 230 254 254 246 119 119 124   4   5  31  12  11  42  12  13  41  12  13  41   6   7  28   5   5  21   7   5  22  10  10  34  12  12  40  12  12  40  13  12  43  11  10  41  11  10  41  11  12  48  10  14  57  10  18  66  10  21  76  10  23  84   8  25  93   8  27 103   9  30 113  11  34 125  10  36 136   7  38 145   6  40 156   5  44 169   5  45 180 
  4  41 166   4  38 154   5  35 142   5  32 130   5  29 118   5  26 108   6  23  96   7  21  85   6  17  74   7  15  63   8  11  54   9   8  41  10   6  31  10   6  29   9   5  28  11   7  30  11   7  29  12   8  34  13   8  36  17   6  33  62  25  54  80  27  57  56  29  42 232 222 209 248 238 217 252 249 234 154 154 151  25  24  23  35  34  33 191 190 186 247 244 233 244 240 228 225 226 222  11  11  30  10  10  37  37  37  54 137 136 135 219 219 214 240 240 235 220 219 219 137 136 137  37  39  54  11  16  42  10  11  41  11  12  42  12  11  42  11  11  41  10  12  44   9  15  54  11  19  65  12  21  73  10  22  82   9  25  92   9  28 103  10  31 112   9  33 123   9  35 134   8  38 146   6  40 157   5  43 170 
  5  39 158   5  35 144   6  33 132   5  29 118   5  26 106   7  24  95   8  22  85   7  18  73   9  15  63  10  13  52  10  10  40  12   7  30  12   7  29  10   6  29   9   6  30   9   4  28  11   6  30  17  11  36  24  12  39  43  13  38  92  23  49 135  15  53 172  89 104 243 221 204 252 242 220 216 213 203  41  39  39   5   1   1   4   1   0  63  62  63 235 230 221 244 236 224 241 239 230  59  58  68  67  68  79 225 225 217 255 255 240 254 252 234 252 251 238 252 251 240 255 255 249 224 224 219  68  70  83  11  14  42  11  11  42  12  12  42  11  11  42  10  11  41  10   8  39  10  12  50  11  17  61  12  20  72  12  24  83   8  24  91   8  27 101   9  30 113  10  33 124   9  36 136   7  38 148   7  41 160 
  5  37 150   5  32 136   5  29 122   6  27 110   6  24  98   8  21  87  11  19  75   9  16  62   8  10  48  11   9  39  12   8  31  15   7  30  11   5  30   4   5  26   0   5  27   8   4  25  22   7  30  30  12  34  42  13  36 107  26  51 128  18  30 190  25  32 206  92  98 244 215 196 250 232 215 217 209 199  46  44  41   7   1   6  24  16  15 108  99  72 231 215 181 248 233 208 236 235 234  86  86  93 208 207 203 254 251 232 255 255 239 231 229 223 232 230 225 254 255 245 244 243 233 248 248 239 217 218 212  25  28  44   9  13  43  10  11  41  11  11  41  11  10  41  12  11  42  12  11  42  12  13  51  14  17  60  13  19  71  11  23  82  10  25  93   8  28 105   9  30 114   9  33 127   9  36 139   8  39 151 
  6  34 140   5  32 128   4  29 114   6  25 101   9  22  90  11  21  78  12  19  66  12  16  53  10   8  38  11   7  30  12   6  29  11   5  29  46  10  32 115  17  43 145  19  43 125  17  53  49  13  29  68   9  37 128  15  48 170  21  45 156   7  22 198  19   2 207  61  53 237 201 181 243 213 198 246 224 210 165 158 154 123  92  33 234 180  28 240 185   8 247 195  10 251 205  22 246 213  86 222 205 132 249 246 227 255 253 234 163 163 162   5   5   5   5   3   3 163 163 161 249 250 241 231 233 223 246 247 239 107 108 110   9  13  40  11  12  42  10  11  41   9  10  40  11  12  42  12  13  43  11  11  42  13  13  50  14  17  62  14  20  73  13  23  84  12  26  96  11  29 107  10  31 119   9  34 131   8  37 144 
  6  32 129   4  29 115   5  26 102   7  24  89  10  20  77  12  18  68  11  15  54  11  11  42  10   6  30  11   7  30  11   6  30  27   9  34 107  15  33 158  16  21 190  19   8 191  16   1 206  38  35 168   7  28 195  22   4 205  23   0 205  26   2 204  26   3 198  17   1 224 158 145 231 190 174 229 182 158 231 166  78 239 146  14 230 133   5 232 149   8 242 173   5 244 184   8 238 185   3 253 209  12 239 211 106 228 222 208   5   4   3   9   5   3  11   8   7  10  10   8 255 255 255 227 228 223 219 219 216 173 171 172   5   6  31  10  11  41  11  12  42  10  11  41  11  12  42  14  13  43  16  12  43  14  11  42  14  14  52  15  18  63  14  20  73  12  23  85  13  27  99  12  30 111   9  32 122   7  34 134 
  7  30 120   7  26 106   7  24  93   9  20  81   9  17  68  11  14  55  10  10  41  10   6  32   8   4  32  12   8  36  16   7  36  57   9  36 116  11  24 170  18   5 200  22   3 214  29   5 210  26   2 204  18   2 205  26   2 206  31   3 193  21   3 179  17   2 168   8   1 170  31  30 197 107  86 216 128  53 210  99   3 208  94   5 207  93   5 222 117   6 228 133   8 233 145  12 237 163   4 243 183   5 251 201   4 107  80  29  12   1   3   5   1   0   0   0   0  49  46  45 249 246 242 222 220 216 212 210 209 175 173 175   4   5  28  10  11  42  10  11  41  11  12  42  14  12  40  17  12  41  16  11  41  16  12  41  16  13  41  17  15  53  14  17  64  13  20  76  11  23  88  12  27 102  10  30 114   7  32 127 
  8  28 112   8  24  98  10  22  84  11  16  71  11  13  57  11  12  44  12   8  33  14  10  34  11   7  32  11   6  33  38  12  40 120  17  19 145  12   7 169  11   2 194  20   3 205  22   3 199  21   3 197  23   3 190  20   3 181  18   4 162   6   2 153   3   3 152   5   3 162  19   6 174  53   5 176  65   6 178  63   3 180  64   3 184  69   5 190  77   6 199  89   9 207 101   8 228 131  10 231 156   8 245 182   7 188 129  12  73  36  35  56  44  44  89  83  82 201 191 191 224 214 214 209 205 205 213 209 213 133 133 135   8   9  35  11  13  42  12  12  42  13  12  43  11  11  41  14  11  42  14  10  41  14  12  43  14  12  43  14  10  43  14  14  55  14  18  67  11  21  81   8  23  92   9  28 105   9  31 118 
 10  28 103  10  23  88  10  19  75  12  14  62  12  10  47  11   7  34  13   7  30  18  11  35  15   6  33  13   6  30  29   6  27 111  11  20 149  16   5 167  11   5 179  14   3 181  15   3 177  14   1 174  16   4 163   9   2 154   4   2 154  10   8 147   5   3 151  11   7 157  33   4 152  44   3 164  57   2 168  55   2 165  52   4 165  52   1 163  49   2 187  76  13 216 113  17 204 100   9 207 111  12 230 143   9 228 149  15  91  30  32 133  73  86 167 123 131 188 158 167 205 180 189 208 188 197 220 205 212  43  42  54  12  12  42  10  11  42  12  12  43  13  12  43   9   9  40  13  10  41  14  10  41  11  10  41  11  10  41  13  10  41  14  13  46  13  17  59  10  18  72  10  22  84   9  26  96   8  29 110 
 11  26  95   9  21  82  10  17  69  13  15  54  12  10  40  13   8  31  17   8  31  29  12  34  29   9  35  30  10  38 103  18  32 151  16   8 155   6   2 161   8   2 166   8   3 165   6   2 159   6   3 155   4   2 150   4   1 152   7   2 153  11   2 146   5   2 145   9   1 146  29   3 159  52   3 156  47   2 160  50   2 159  46   2 164  52   5 156  44   5 157  46   4 156  48   4 158  51   8 194  83   8 229 121   9 217 120  13  97   5   7 129  37  46 156  76  93 180 115 136 197 148 164 205 161 171 184 126 137  62  26  50  22  15  49  12  12  44  13  14  45  13  14  45  12  13  44  11  11  42  14  11  42  11  10  41  10   9  40  12  11  42  12  11  42  11  12  50  11  18  63  11  22  77  10  25  90   8  27 104 
 10  25  88   7  20  73   8  16  60  12  13  46  13   8  31  13   6  30  15   8  30  21   9  29  52  20  44  96  14  34 147  12   8 161  14   2 163  10   4 173  17   4 175  15   3 172  14   2 163   8   2 160  10   2 155  10   2 148   7   2 149  12   5 146   6   1 146  14   3 150  35   3 162  52   6 160  52   3 160  51   3 156  48   2 154  45   6 146  37   4 145  40   3 134  31   3 148  43   7 170  56   7 216 101   9 206  98  11 115   5   4 118   6   3 126   9  10 151  45  60 180  86 106 190  74  83 213  37  51 205  45  74  96  22  61  15  16  46  14  12  46  11  12  44  12  11  43  12  12  43  13  12  43  12  11  42  11  10  41  14  12  42  11  10  41  10   9  41  11  16  55  11  20  69  10  24  81   9  25  96 
  9  22  83   8  17  67  10  13  53  13  10  39  13   8  31  14   6  30  14   7  30  16   6  27  29   5  30 131  14  18 158  14   1 155  12   2 159  10   1 161   8   0 172  18   3 172  14   4 160  10   2 152  10   1 147   8   3 139   5   1 138   8   2 142   9   1 146  21   2 156  45   3 162  50   3 158  51   4 155  50   4 157  51   1 146  38   4 143  39   3 140  40   4 124  25   3 132  33   5 145  38   6 186  75  10 160  53   7 114   4   5 115   2   1 125   5   2 132   6   5 150  10  12 189  15   4 210  16   7 219  26  46 207  30  70  94  22  58  18  15  46  23  17  52  16  11  45  17  12  45  17  12  44  12  11  42  12  11  42  16  13  41  13  12  42  12  11  42  11  13  46  11  17  60  11  21  74   9  24  87 
 10  20  74  10  16  59  11  12  48  13   8  31  12   7  30  12   6  33  12   5  32  18  10  34  37   8  32 138  14  11 155  11   2 149   6   2 155   8   1 160  10   1 163  12   3 162  14   2 147   6   3 146   9   2 139  13   5 135   8   2 127   5   2 130   6   1 145  27   3 154  46   3 156  50   5 143  39   2 145  41   1 146  47   2 143  43   2 139  38   3 133  36   2 128  32   6 121  22   2 137  30   6 159  45   4 135  17   4 119   6   3 119   3   1 125   3   2 129   1   3 160   4   2 198  20   7 214  22  11 214  15  24 223  28  55 219  32  74 139  24  74  32  11  45  24  14  46  17  11  43  17  14  46  13  14  44  13  14  44  13  12  43  11  10  41  11  11  41  12  11  42  10  14  52  11  16  65  12  23  80 
 12  21  69  12  15  54  13  12  42  13   9  33  12   7  31  13   7  33  14   7  34  19   9  33  48  10  29 136  18  12 146  10   2 151   9   3 156  11   2 154   9   1 154   9   2 149   9   1 148  10   1 147  12   3 134   5   1 127   4   2 124   5   4 126   6   2 141  24   4 143  40   4 138  39   2 142  40   3 134  35   3 134  37   5 139  43   5 127  34   3 124  33   5 118  29   6 115  19   3 129  25   5 151  35  10 130   7   5 119   4   1 118   4   1 131   4   1 136   1   1 151   1   4 185  10   4 205  17  11 212  14  20 216  17  33 222  29  54 228  34  71 175  29  75  70  27  59  22  12  42  17  13  45  13  13  44  12  13  43  13  12  43  14  14  41  13  13  39  11  11  38  11  12  44  12  15  58  12  22  73 
 13  19  64  13  13  50  14   8  34  13   9  36  14  10  37  13   7  35  18   8  35  31   8  32  57  11  29 112  15  21 139  12   2 146   9   3 148   8   1 142   3   1 147   7   2 149   7   2 147   8   1 151  13   3 146  10   2 134   8   1 122   2   2 129   7   2 136  18   2 131  28   4 131  32   5 118  24   3 116  25   3 121  27   6 125  31   6 118  24   4 116  25   4 114  23   6 117  22   5 121  15   2 131  12   2 126   3   2 114   3   2 122   6   3 147  11   3 143   5   3 158  10   2 181  18   4 199  22   5 203  16   6 200   8   8 208  10  23 210  14  42 204  25  61 153  26  70  36  14  45  19  12  46  13  13  45  13  14  45  13  12  43  13  12  42  12  12  41  10  10  36  11  10  37  12  15  51  11  18  64 
 12  16  61  12  12  45  14  10  35  14  10  36  16  12  39  17  12  42  20  13  41  22   6  32  35   9  32  77  10  20 137  11   2 140   7   2 148  12   3 148   8   1 150   7   2 150   8   2 144   5   2 146   7   2 145   6   1 145   9   2 139  12   3 141  10   1 138  13   2 125  21   2 116  23   6 105  16   5 112  25   9  96  14   7 104  19   6 116  26   5 108  18   3 105  13   4 113  13   2 121  12   2 128   8   3 123   4   2 109   2   1 138  10   5 162   9   3 178  18   3 183  18   3 162   7   2 171  12   3 194  17   1 200  19   6 192   5   6 209  14  25 208  20  48 145  13  48  29  12  43  16  10  43  12  12  42  13  13  43  14  13  41  13  11  40  14  12  37  13  11  35  14  11  36  12  12  45  10  14  56 
 12  14  55  13  11  40  14  10  35  13   9  36  16  12  39  15  10  40  15  11  41  17   6  34  24   5  31  60   7  20 125   8   2 131  10   5 136  13   4 145  14   3 146  10   3 143   9   2 142   6   3 146  10   5 141   4   2 134   5   2 135   6   2 135   5   2 128   6   3 122  13   3 104   9   3  97   9   4  96  16   9  77   7   4  86  14   6 100  20   9  95  11   3 104   8   3 119  11   3 123   7   1 119   4   2 108   1   2 116   5   2 139   9   4 163  11   3 182  13   3 199  27   7 178  19   7 159   7   3 181  13   4 201  22   4 197  14   2 204  11   9 214  28  43 165  26  58  53  21  54  20  12  42  14  11  42  13  10  41  14   9  39  16  12  41  15  13  37  13  11  35  14  11  35  13  11  40  10  12  52 
 11  16  54  13   9  37  13  10  32  15  11  36  15  11  36  16  12  38  16  12  41  18   9  36  19   5  28  36   5  24 114  11   7 113   7   2  47   2   3  61   4   4 104   7   2 124  11   5 131  11   2 130   5   1 124   3   2 128   7   2 128   7   2 128   7   1 115   2   1 118   4   2 119   8   0 105   7   4  83   6   4  73   4   4  76   7   4  84  10   5  96   9   3 111  10   2 120   6   2 127   7   2 114   4   3  98   2   1 113   7   3 130   7   2 158  14   3 166  11   3 177  10   4 199  28   8 172  10   3 180  14   3 193  17   1 203  16   3 212  18  13 199  15  27 192  34  59  86  26  53  22  13  42  16  12  41  13  10  38  12   9  36  14  11  38  13  11  34  13  10  38  13   9  36  13   9  36  11  12  50 
 11  13  50  10   8  33  12   8  32  13   9  33  12   8  33  14  10  37  15  10  41  15  11  40  23   8  31  91  12  19 147  16   4 137  10   2  63   3   2  10   2   2  17   1   2  39   3   2  58   4   4  79   6   4  91   5   4 103   7   3 124  10   7 130  13   5 131  10   3 135   8   3 138   8   1 128   6   2 114   7   2  78   1   2  65   3   4  85   5   3 106   7   3 113   5   3 114   1   1 127   4   1 125   5   3  88   2   1  92   1   1 119   3   2 138   6   3 152   4   2 162   5   3 186  19   3 177  16   5 182  16   2 198  22   3 203  18   4 207  13  13 201  17  37 139  13  43 119  27  51  49  22  51  17  12  42  13   9  39  12  10  38  12  10  38  13  11  37  15  11  37  12   8  34  14  10  33  13  13  48 
 10   9  44   9   6  30  10   7  29  11   7  29  12   8  34  14  10  37  13  10  37  13   5  33  50   8  29 135  15   9 152  11   1 141  10   1  96   3   1  26   1   2   7   1   0   9   2   0  10   2   2  12   2   2  19   2   3  25   2   2  29   4   3  39   4   5  94   6   3 141  15   3 147  15   3 145  19   4 136  14   1 131  18   8 107   9   4 113   7   3 121   8   2 126   8   1 120   3   3 130   8   2 128   8   2  90   1   0  98   4   1 103   3   1 116   2   2 166  18   6 168   8   3 167   7   2 159   6   2 167  13   1 184  18   1 193  16   3 198  11   5 203  17  42 144  30  63  81  18  41  65  20  49  18  12  42  14   9  39  15  12  41  13  10  39  12   9  37  14  13  37  13  11  35  14  10  32  14  13  44 
 12  10  42  11   7  30  10   7  29  11   7  29  11   8  30  12   8  33  14  10  35  34  12  37 113  14  19 144  14   0 153  11   2 143  10   2 121   6   3  70   5   2  10   4   2   8   3   1   4   3   1   4   2   0   6   2   1   7   1   0   7   2   0   6   1   1  17   1   1  60   5   4  82   2   2 111   4   2 123  14   4 124  15   5 126  11   2 137  18   5 128  10   2 121   7   2 112   3   2 124   6   3 122   7   2 100   2   2  97   4   4  83   1   0  99   2   1 158  18   2 175  19   6 165   8   3 155  13   4 147   8   2 159  13   2 180  16   3 191  13   3 206  22  36 192  22  64 120  27  60  83  24  43  24  14  44  14  11  42  14   9  39  13  10  39  12   9  38  13  10  37  13   9  36  15  10  36  16  16  43 
 12   9  39  12   9  34  11   7  34  10   7  32  12   8  34  12   8  32  15   6  33  72  12  25 114  12   3 133  12   2 145  12   1 139  10   2 135   8   2 127   8   3  52   5   3   8   3   1   5   2   1   5   2   0   6   2   1   5   3   1   5   3   0   5   3   1   4   1   0   5   2   1  11   2   1  35   3   2  51   4   5  45   2   2  74   4   4 103  10   6 112  10   5 111   7   2 107   5   2 114   5   2 120  10   4 122  10   5  96   4   2  71   1   1  87   1   2 145  10   2 173  23   4 147   1   2 143   7   2 129   1   3 136   3   2 163  10   3 187  16   2 202  19  20 210  28  53 187  39  76 131  32  59  38  15  44  18  11  40  14   9  39  13   9  38  12   9  38  12   9  37  12   9  36  14  11  36  18  15  44 
 13   9  37  13   8  36  13   9  36   9   7  31  10   8  32  13   8  31  29   8  30  90  17  21  62   4  10 104   8   7 137  13   2 138   8   2 142   8   2 145  13   5  96   7   5  15   2   2   7   1   1   7   1   1   7   3   2   5   4   2   4   3   1   3   3   1   2   1   0   7   2   1   7   3   0   5   3   0   5   2   0   9   1   1  16   3   1  26   2   3  48   3   3  69   7   3  83   6   2  98   6   2 112   8   4 116   4   2 107   6   4  78   1   1  92   3   3 125   3   2 166  19   3 150   6   2 136   6   1 125   2   1 126   2   1 159   9   3 182  18   3 191  17  12 191  16  40 177  22  56 125  20  50  70  22  48  30  14  42  12   8  38  14  10  39  14  11  40  15  12  41  14  11  40  15  12  39  15  14  42 
 13   9  36  12   7  34  11   7  33   7   7  30  10  10  33  22  11  31  53  13  27  57  11  19  33   6  21  83   8  11 130  11   1 139   8   2 139   4   0 142   7   3 119   6   3  52   3   4   3   3   3   6   2   2   7   3   2   7   3   0   7   3   0   5   2   0   5   1   0   5   1   0   6   2   0   8   3   0   8   4   1   8   3   1   7   2   0   6   3   0   8   2   0  12   2   0  25   2   1  54   2   2  92   6   6  95   3   2  98   3   2  91   5   3  93   3   1 114   2   3 146  13   2 153  13   3 139   6   1 129   5   2 127   2   2 151  12   3 176  18   3 184  18   6 183  13  22 167  24  50 106  17  40  73  27  52  27  12  38  13   8  39  13  10  38  14  11  38  15  12  41  13  10  39  15  12  41  17  14  44 
 15  11  33  14  10  32  11   8  29  11   8  28  15  12  32  28   8  30  55  12  26  34   6  24  21   5  29  58   8  22 103  12   4 136  14   2 147  11   3 146   6   2 148  11   2 133  13   5  24   5   4   5   2   2   6   2   1   7   3   0   7   3   0   7   3   0   5   1   0   5   1   0   3   2   0   5   3   0   6   2   0   6   4   1   5   3   0   7   3   0   4   3   0   7   3   0   9   3   1  11   2   2  18   1   2  61   3   5  95   9   9  80   4   2  88   5   4 101   5   3 109   6   3 142  21   4 132   6   1 138   8   3 140   9   1 140   4   2 169  18   2 183  17  10 173  13  20 160  18  37 102  17  50  54  19  47  23  12  44  15  10  40  14  10  40  14  11  41  14  11  40  14  11  40  15  12  41  16  13  42 
 14   9  33  14  10  30  12   8  31  13   8  31  16   8  31  29  10  29  38   9  29  19   9  36  12   8  34  28   8  24  71   6   7 134  18   6 139   4   1 152  10   3 162  17   3 152  12   1 117  14   6  16   3   4   4   1   1   6   2   1   6   2   1   6   2   1   7   2   1   3   1   0   4   0   0   6   2   1   7   3   2   2   1   0   6   1   1   6   2   0   7   3   0   7   3   0   8   3   0   8   3   0   6   3   0   7   2   1  12   2   1  27   1   2  41   1   2  61   5   3  74   3   4 112  11   4 121   6   2 139  10   3 145  13   4 146   7   2 170  13   9 184  22  38 149  13  44 143  17  41 101  26  56  53  18  48  29  15  46  17  11  42  16  11  41  13  10  39  16  13  42  16  13  42  13  10  39  14  11  40 
 15   9  32  15  10  31  12   9  30  13   8  31  16   8  32  19   7  30  14   6  35  12   7  36  11   7  32  17   8  29  78  13  17 136  13   4 144   6   1 152  10   2 157  16   4 142   4   1 147  13   4 101  11   5  20   5   4   7   3   2   6   3   1   8   2   2   8   3   2   6   3   0   6   2   0   7   3   1   8   4   3   5   2   0   6   2   0   6   2   0   7   3   0   6   2   0   7   2   0   7   3   0   7   3   0   7   2   0   8   4   1   7   3   0   7   2   0  15   2   1  27   2   3  42   3   3  88   6   6 128  13   6 141  11   1 144   8   3 165  15  22 182  23  50 154  24  50 143  26  53  73  17  47  34  16  46  22  13  46  17  12  42  15  11  41  15  11  40  15  12  41  15  12  41  14  11  40  15  12  41 
 15  10  33  15  11  32  12   9  30  12   8  31  16   9  32  17  10  35  13   8  38  11   6  36  19   9  34  61  13  24 114  17  10 132  10   2 135   8   2 130   7   2 126   5   2 142   9   5 154  14   4 145  12   3 104   7   4  25   5   6   4   2   3   8   2   2   6   2   0   5   2   0   7   3   0   7   3   1   7   3   2   7   3   0   7   3   0   7   3   0   7   3   0   6   2   0   7   3   0   8   4   1   7   3   0   7   2   0   9   4   1   8   3   0   8   4   1   9   2   0  12   3   2  27   5   3  51   2   2  95   2   1 138  10   3 149  12  10 103  11  35 111  24  54  76  18  42  98  21  45  83  24  51  29  14  45  20  12  45  17  12  42  17  12  42  17  12  42  15  12  41  15  12  41  16  13  42  15  12  42 
 15  11  33  16  11  33  14  11  32  11  11  32  14  11  33  14  10  35  12   8  34  14  11  34  20   8  33  44   6  21  81   5   8 120  10   2 120   5   3  99   0   1 106   3   2 132   6   2 135   7   1 144  12   4 140  12   2 136  17   6  55   4   4  35   6   4  42   8   9  31   8   9  13   4   2  13   4   3   8   4   2   5   1   0   7   2   0   6   2   0   6   4   1   7   6   2   7   4   3   8   4   2   7   2   1   6   2   1  11   2   1  16   4   3  22   5   2  50   3   4  95   9   7  93   9   4 108  11   4 124   7   3 137  10   3 155  20  16  88  17  38  29   7  35  74  36  64  47  12  37  59  23  51  31  14  45  18  13  44  19  12  43  18  11  42  18  12  42  17  12  42  17  12  42  16  11  41  18  12  44 
 15  11  38  14  11  33  12   9  31  12  10  32  14  10  33  14   9  35  12   8  33  11   7  31  17   8  31  33   7  27  86   9  12 118   6   3 123   6   2 121   4   3 125   4   2 131   5   2 125   3   3 145  15   2 149  15   3 143  11   2 142  11   3 143  16   5 126  17   9  84  15  14  64   8  10  81  12   8  66  12   7  39   5   5  25   5   4  13   5   3  14   5   3  15   4   4   6   4   3  11   3   3  37   4   3  53   6   4  70   9   4 109  13   6 132  11   5 129   9   2 137  15   3 132  15   3 136  15   2 135  10   2 135   8   2 128  15  22  59  15  41  28  17  49  30  11  43  42  22  50  30  15  46  26  15  46  23  14  46  19  12  43  17  12  42  17  13  43  17  12  42  16  11  41  15  11  40  16  12  44 
 15  12  40  14  12  34  13   9  32  13   9  32  13   9  32  14   8  34  14   9  32  18   8  33  27   8  32  51  10  29 108  11  10 130  10   2 136  10   2 140   7   3 142   8   2 139   6   2 132   6   3 132   5   1 141   9   2 137   6   2 137  10   2 137  11   3 127   8   1 119  12   4  99   7   5 119  11   3 139  18   4 124  16   8 110  12   7  94   8   6 102  13   7 105   9   6  80   5   4 103  11   7 135  12   5 142   7   4 155  16   4 154  15   2 147  11   2 145  10   2 144  12   3 128   7   2 133  12   2 134   9   2 142  19   8 111  16  31  50  16  45  24  14  49  22  12  45  34  19  51  21  13  47  21  14  44  20  13  44  21  14  45  18  13  43  17  12  42  18  13  43  17  11  42  15  10  40  14  12  44 
 15  14  44  16  12  35  14  10  33  14   9  32  14   9  32  12   8  34  13   8  32  19   6  30  40   9  31  81  15  24  92  11   5  98   4   3 113   3   4 134  10   3 141  10   2 135   5   3 130   5   2 127   5   2 131   6   2 127   3   3 123   6   2 129   8   1 132  17   7 120  11   5 102   5   3 104   7   1 123  12   5 133  18   4 137  19   4 136  14   3 137  15   5 142  17   3 135  12   2 143  11   3 150  12   3 146   9   3 146  12   2 150  16   2 153  16   4 149  11   1 143  11   4 127   6   1 128  10   2 133   7   1 140  11   6 100  14  28  33  13  48  22  16  51  20  14  50  22  13  49  19  14  47  19  15  46  18  14  45  20  15  45  19  14  44  18  13  43  17  12  42  17  13  42  16  13  42  12  15  50 
 15  15  48  15  11  34  13   9  32  13   8  31  13   8  31  15   6  34  14   7  31  18   5  29  46  13  25  54   8  18  53   7  19  84   7  11 109  12   9 113   6   2 132  12   3 127  11   5 127  13   6 108   4   1 118   9   2 134  16   5 122   9   2 127  12   3 123   8   2 119   9   4 109   6   2  96   3   2  93   4   2  91   0   1 113   5   1 129  13   4 129  13   5 131  10   1 140  14   2 143  11   2 145  11   2 136   7   2 131  15   4 120   5   2 127   5   2 142  12   4 141   9   2 131   9   1 118  10   4 115   6   6 140  18  10 105  16  25  23  12  45  13  14  51  18  15  49  20  16  50  15  14  46  16  15  46  16  14  45  17  13  43  18  14  44  18  13  43  17  12  42  18  13  43  17  14  43  12  15  53 
 15  16  54  13   9  37  13   9  34  13   8  31  13   8  31  14   8  34  17   9  34  23  11  32  27  10  31  36   8  25  55   7  21  97  12  11  95  15  14  96  13  13 110   8   2 104   5   1  96   0   2  93   2   2 115  13   5 113   6   3 114   5   3 120   8   3 132  13   4 113   6   3 109   3   3 106   5   3 103   9   5  92   3   2 104   6   1 121  15   5 103   2   1 113   4   2 135  12   3 144  16   3 134   7   1 125   7   1 112   5   3 101   2   3 105   1   1 125   7   1 139  11   2 136  16   5 125  23  14  92  17  26 114  15  17 122  17  18  33  13  44  13  15  49  16  17  50  14  16  46  13  14  45  13  13  44  16  14  45  16  15  47  17  15  45  17  14  43  17  14  43  17  14  43  16  13  45  14  17  57 
 14  17  61  15  11  45  15  11  38  12   8  35  13   9  35  16  12  37  20  12  39  20   9  36  14   9  31  27  10  30  54  12  24  77   9  11  53   5  16  56   5  16  84   7  11 107   9   8  96   3   1  89   2   2  94   5   2 103   7   5  94   3   2 106   2   2 123   6   3 121  10   4 119  11   7 107   9   5  81   3   3  77   1   2  91   4   2 108   8   5 121  11   5 131  16   6 133  17   3 125   7   2 127   7   2 122   8   2 113   4   1 112   2   1 116   3   1 132  10   1 141  12   2 105  14  15  54  14  37  49  19  44  59  14  42 130  18  16  57  15  39  14  14  48  13  17  52  13  17  50  13  14  45  15  12  42  16  12  43  15  14  45  15  13  43  16  13  42  18  14  43  18  14  44  15  15  48  10  17  61 
 12  15  64  14  13  50  15  11  38  14   9  40  14   9  41  16  11  40  16  11  41  14   9  39  13   8  36  14   8  33  22   6  28  29   7  24  45  11  25  64  17  24  97  20  19 101   8   5 107  10   5  92   3   1  83   3   3  98  10   6  92   3   2 107   6   4 124  11   3 117   9   4  96   3   2  78   2   2  69   1   1  80   2   1  93   2   1 103   6   2 101   3   1  95   1   2  98   1   2 109   2   2 120   2   2 117   4   2 122   6   2 133  13   1 136  10   1 151  14   2 143   5   2 120  13  16  44  16  43  21  14  47  25  16  49  96  29  42  73  22  40  33  23  55  18  19  56  14  15  50  14  16  47  16  15  44  16  15  44  14  13  45  15  13  42  16  13  42  14  14  42  15  14  43  13  16  52  10  18  67 
 12  19  70  14  15  57  14  10  42  14   9  41  14   9  41  16  11  43  15  12  42  14  11  40  16  11  41  15  10  40  13   9  38  14   7  36  19   8  31  25   8  31  28   4  29  83   4   6 100   8   4 104   7   3  90   2   1 103   7   4  98   2   2 102   3   2 108  11   5  92   8   5  75   4   4  80   3   3  98   5   4  99   3   1 106   8   4 102  11   5 100  13   8 100   6   5 105   5   2 106   2   1 117   4   2 116   4   3 113   4   1 138  13   3 150   7   2 174  20   3 165  15   4 151   8   8  98  16  32  24  12  44  20  17  48  50  18  39  48  16  42  22  13  47  21  18  55  13  15  49  16  14  46  13  14  44  13  14  44  13  14  44  12  13  41  14  14  42  16  12  42  14  11  43  11  15  58   9  18  70 
 13  22  78  13  17  63  13  14  48  13  10  41  15  11  42  16  12  43  17  13  43  15  11  42  14   9  40  14  10  40  16  12  42  15  10  40  13   9  39  14  10  41  40   9  35 112  19  11  97   2   2 119  11   5 107   4   2 112  13   6 107   7   2 116  16   5  70   3   2  54   3   3  45   3   2  58   6   4 120  21   9 102   2   2  88   2   2  82   4   4  75   1   1 100   5   2 116   9   6 109   5   2 113  10   3  88   3   1 103   2   1 140  10   3 162  10   3 185  22   3 187  23  13 174  15  23 144  16  34  32  13  44  21  16  48  51  20  47  38  18  49  16  13  48  14  15  50  11  14  48  14  15  48  13  14  45  13  14  43  12  13  42  14  14  42  15  15  42  15  12  41  13  13  49  11  16  64   8  18  75 
 13  23  84  13  19  69  13  14  54  13  10  41  13  10  41  15  12  43  16  12  43  16  11  43  15  10  42  15  10  41  15  10  40  16  11  41  16  12  42  34  13  44  95  14  28 132  20   8 122   5   1 130  10   1 118   2   2 105   5   3  91   2   1 108  10   4  75   3   3  43   1   2  35   2   1  41   4   4  95  15   6 137  26  11  90   3   2  96   6   4  87   3   2 107   8   3 115   5   2 114   7   2 101   5   1  88   2   1 114   2   2 152   9   1 170  14   1 186  18   2 177  10  16 146  10  22 113  23  41  39  12  43  31  13  45  72  29  55  33  20  49  14  15  49  13  13  49  14  14  49  14  14  49  13  12  45  16  16  45  14  14  42  17  14  43  18  14  43  15  12  41  12  14  55  10  18  70  10  21  84 
 11  24  89  13  19  75  14  17  64  14  13  49  15  12  43  15  11  43  14  11  42  16  11  43  17  12  42  16  11  41  17  12  42  17  11  41  24  11  44  70   9  34 140  16   8 144  16   2 129   4   3 136  13   4 144  18   7 123   3   2 115  10   3 128  11   5 144  21   6 102   8   2  68   5   3  56   2   2  76   3   1 106   6   2 123  24  13 120  15   6 123  20   9 115  21  10 107  15   7 114  11   7  97   4   4  91   2   2 138   9   3 161  13   3 174  13   2 185  18   3 175  16  17  93   8  31  57  16  47  63  17  51 104  44  76  72  25  54  19  14  45  13  16  50  13  13  49  15  15  50  14  15  46  15  14  45  15  14  45  17  14  45  16  11  42  16  11  41  15  13  48  13  14  60  13  20  75  12  24  89 
 10  26  96  11  22  82  12  18  69  14  16  57  17  13  45  15  11  43  15  11  43  18  13  45  17  12  42  17  12  42  16  11  41  20  11  43  39  10  36 118  14  19 152  14   0 148  17   3 130   6   2 127   4   1 136   4   2 150  14   3 143  13   2 140   6   2 152  11   1 161  19   4 135  10   3 123  16   6 116  12   5 110  11   7 105   5   4 113  13   8  79   4   5  55   0   1  88   4   4 125  10   4 118   9   4 112   4   4 140  11   2 160  12   2 175  18   3 193  23   3 199  30   6 178  31  22 106  26  54  98  29  56  63  17  48  37  16  49  17  19  53  15  19  56  15  15  51  17  17  52  16  16  47  15  14  45  15  14  45  16  13  44  15  11  41  18  13  44  15  15  56  14  18  69  14  21  82  11  25  95 
 11  28 104  12  25  90  12  20  76  13  17  63  17  13  51  18  12  45  16  12  44  19  12  45  16  12  44  16  14  46  15  11  43  28   9  42  56  11  30 136  20   7 140  11   2 132   8   1 116   4   2 120   4   3 150  12   4 160  19   5 140   7   2 148  14   3 148   8   2 159  10   2 152  13   3 126   6   2 111   5   3 114  10   6 119  14   7 104  11   7  72   8   7  71   8   7 111  15  11 124  10   3 132  12   3 118   4   2 124   4   2 153  15   3 157  12   4 186  27   5 197  28   3 196  30   2 182  36  21 133  23  49  97  28  65  39  20  57  20  19  54  18  18  53  15  15  51  16  16  50  13  14  45  15  16  48  16  17  48  14  14  44  17  13  43  16  14  51  16  18  65  13  19  76  12  22  89  11  26 103 
 12  30 112  13  26  98  13  23  85  14  20  74  15  16  60  17  15  50  17  12  43  19  13  43  16  12  43  17  14  45  19  11  43  40  12  42  49  10  29 115  15  11 131   9   3 110   1   1 105   7   3  92   5   2 140  11   3 170  23   4 130   5   3 144  12   2 151   5   3 162  12   1 162  22   2 129   6   3 118   7   4 108   4   3 111   9   3 116  10   5 109  13   8 113  13   6  97   4   4 114   7   3 141  14   2 146  26  16 103   3   2 134  13   3 160  25   6 138   8   3 159  16   2 183  22   3 189  26   2 187  27  12 189  32  16 154  24  38  45  17  53  19  16  52  17  18  53  13  17  50  13  15  47  14  15  46  14  15  45  14  13  44  17  15  47  17  18  59  15  20  73  14  22  85  11  24  96  11  28 110 
 12  32 120  13  28 107  11  24  92  12  21  81  12  17  68  12  17  58  15  13  45  22  13  45  32  17  48  26  11  43  31  13  44  69  23  49  91  11  32 140  15   8 143  13   3 114   4   2 111  11   5  80   4   3 128   8   3 175  25   5 151  10   3 145   6   2 165  12   2 168  17   2 164  18   3 146   8   3 150  17   3 126   8   3 138  18   5 145  25   8  99   3   3 130  15   4 139  17   6 136  13   4 149  16   4 141  11   4 104   5   4 111   6   3 148  20   4 144  20   8 116   2   3 142  13   3 162  19   3 173  14   3 184  14   2 195  21   9 132  22  46  41  20  56  23  15  49  21  15  47  22  17  49  14  14  45  12  13  43  13  12  45  16  17  55  16  20  67  14  21  81  13  24  93  12  28 106  10  29 118 
 10  34 127  11  30 114  12  27 102  12  24  91  13  21  79  12  19  68  14  16  55  20  12  45  26  14  41  47  22  45  67  20  40 102  11  28 146  15   0 150  14   1 141  10   2 127   7   2 102   7   3  69   2   4 134  15   4 172  21   3 161  13   2 154   9   2 170  19   3 173  20   2 158  14   2 148   7   2 154  13   3 133   2   3 146  14   3 149  14   2 116   6   2 130   9   4 165  23   4 161  17   3 155  15   4 164  28   8 122  10   4 114   5   2 135  12   2 151  24   7 113   5   3 108   5   3 120   3   2 146  13   5 174  20   2 205  33   1 216  27   3 124  19  36 114  23  41 146  30  42 145  33  41  86  29  50  25  15  47  12  15  51  14  18  65  14  21  77  13  24  89  12  26 101  11  29 114   8  31 123 
  9  36 135  11  32 123  12  30 111  13  26 100  13  24  87  13  21  75  13  17  64  14  15  53  17  13  44  26  12  42  98  20  32 141  16   2 146  12   2 141  11   2 130   9   4 106   6   3  68   2   1  61   4   4 136  15   6 165  15   4 155   9   2 159  12   4 164  13   3 166  14   2 147   9   2 142   7   3 158  18   4 130   3   2 145  10   2 156  13   3 156  14   3 153  11   2 160  18   2 163  19   3 162  14   3 172  23   4 165  27   6 139  17   7 127  10   4 136  19   8 113  13   7 105  10   8 112  10   4 114   6   4 136   9   1 184  23   3 203  32   3 190  19   4 197  26   0 175  23   4  86  16  26  59  23  46  45  26  58  14  16  63  14  20  73  13  23  85  11  26  98  10  29 110   9  32 122   7  34 132 
  8  38 144  10  34 132  11  31 119  12  29 108  13  26  96  12  23  83  13  19  73  15  17  63  16  16  53  35  13  50 111  17  29 151  20   4 149  15   2 137   9   2 112   5   2  69   1   1  45   1   2  65   4   3 139  14   5 156  11   2 158   8   2 164   9   3 163  11   2 152  10   2 128   8   2 143  12   2 157  18   2 127   3   2 159  25   3 160  12   2 175  18   3 168  17   5 152  11   1 157  19   2 172  25   4 172  21   1 171  21   2 170  31   9 132  12   6 124  17  11 103  11   9  90   5   5 106   9   7 100   4   3 102   3   1 162  21   3 192  32   3 187  22   2 179  17   2 161  17  17  53  11  46  17  19  57  16  19  63  12  19  71  10  21  81  11  25  93   8  28 106   8  32 119   8  34 131   8  37 142 
  9  40 153   9  36 141  10  33 129  12  32 118  11  29 105  12  25  94  14  22  83  15  19  72  21  18  63  62  21  49 128  16  10 150  15   2 152  11   2 153  18   4 105   7   3  55   3   2  41   2   1  77   8   3 146  17   4 146   3   2 165  16   3 173  15   3 167  12   2 149  14   1 125   5   2 156  19   4 161  19   2 131   2   1 162  21   7 158  10   3 173  20   2 170  17   2 146   9   3 136   8   2 163  17   3 173  26   4 163  16   3 152  14   6 152  25   7 122  12   2 100   6   4  92   7   4 107  12   8 107   5   4 111   5   2 132  12   4 170  21   3 186  30   4 179  12   2 197  29   8 167  35  60  36  23  68  15  22  76  11  22  84  10  25  94   8  27 104   8  30 116   8  34 128   9  36 140   7  39 152 
  7  42 162   8  38 150   9  36 138   9  32 126  10  31 115  11  27 100  11  24  91  13  21  82  29  23  72  82  23  53 132  20  17 156  16   2 158  14   1 154  18   3 101   7   3  52   3   1  41   3   1  85  10   5 134  11   3 140   6   2 171  22   4 181  21   3 178  20   1 154  20   4 125   7   3 155  15   4 165  19   3 139   2   3 150  10   2 166  18   5 170  20   3 164  14   3 151  11   1 133  12   4 145  11   4 157  14   2 160  23   6 150  16   4 148  16   3 142  18   5 121  12   2 101   7   4 109   7   3 122  11   3 131  16   5 133  12   5 149  13   1 185  26   2 195  20   1 199  33  12 170  24  46  86  29  83  33  30  92  10  25  95  10  27 104   9  29 114   7  33 126   8  36 138   8  39 150   6  41 160 
  6  44 170   7  41 159   7  37 146   8  35 135   8  32 123   9  28 110   9  24  99  17  25  91  42  29  84  74  23  64 131  24  33 152  20  17 162  16   6 156  14   2 108   9   1  49   1   3  44   3   3  89  13   8 120   8   3 151  12   3 163  11   2 177  17   2 179  26   2 139   9   2 147  17   5 154   9   2 165  17   3 148   5   2 150   9   2 164  19   4 158  13   2 156   8   1 163  18   2 150  18   5 134   8   4 145  12   3 156  19   3 150  17   4 136  12   1 137  12   1 136  15   2 123   9   4 120  10   4 120   8   3 126  10   2 132  11   3 150  19   5 169  16   7 184  25  16 195  36  28 182  37  44 164  37  74  96  31  90  28  30 106  11  30 114   8  33 125   7  36 137   9  39 149   7  41 160   5  43 171 
  5  46 180   6  43 169   6  40 157   7  38 144   8  35 133   9  31 121  10  29 112  20  29 103  31  26  92  89  28  71 132  27  42 146  24  33 146  13  20 159  15  11 106   7   3  44   1   2  44   3   4  84  10   9 123  13   5 153  13   2 162   9   0 173  15   2 173  23   3 144   5   2 156  16   4 160  16   5 160  13   4 153   8   2 155  14   4 141  12   3 132   5   3 158  12   3 170  20   2 148   7   2 145  11   2 145   8   2 155  16   2 153  20   4 129   8   1 128   7   1 137  14   1 131  12   3 140  24   5 118   6   1 121   6   3 150  20   6 155  21  12 145  15  22 152  19  31 172  34  43 170  36  56 159  40  71 130  39  85  79  44 117  15  34 124   7  35 136   8  39 148   7  41 159   6  43 169   5  46 181 
  4  48 190   5  45 178   6  43 167   6  40 155   7  38 144   7  33 132  10  31 124  18  29 113  57  30 104 112  30  76 127  28  55 133  24  46 133  14  34 146  18  24  98  10  17  42   2   6  37   2   1  80   6   5 121   9   4 148  11   1 161  12   1 172  18   3 174  17   4 153   6   2 152  12   1 162  19   5 156  10   3 165  17   7 161  19   2 130  18   7 122   6   2 152  10   2 169  25   2 148  10   4 140   8   3 151  15   2 156  17   3 153  20   3 129   8   1 131  11   3 129  13   2 116  12   4 126  19   8 128  14   4 127  12   7 142  17  18 142  18  25 136  21  36 123  19  45 138  32  58 147  35  68 148  41  83 135  46 101 108  50 123  35  40 135   8  37 147   6  41 157   6  43 168   5  46 180   4  48 191 
  3  51 200   4  48 189   5  45 178   6  44 167   7  41 156   7  36 146  12  34 135  31  36 127  82  36 105 100  30  81 113  28  71 115  19  60 128  23  51 137  21  41  94  14  32  44   7  22  36   4  13  69   4   8 116  12   5 137  12   3 151   9   1 169  16   4 170  16   2 162  11   2 147  11   1 152  16   5 159  11   3 173  23   6 163  18   3 138  12   4 143  16   3 140   6   3 160  21   3 160  18   3 147   7   2 149  13   2 155  19   4 155  21   3 148  20   4 142  19   3 135  17   2 122  14   5 104  12  19 118  15  17 128  21  23 124  18  31 116  18  40 119  24  50  99  19  60 103  24  71 132  44  83 130  45  92 119  43 108 105  49 127  48  41 147   9  40 156   4  43 168   5  46 179   5  48 190   4  51 201 
  3  53 210   3  51 199   3  48 189   6  46 178   7  43 168   9  40 157  14  38 145  46  39 132  77  35 107  94  33  96 101  27  85 103  21  75 121  24  66 125  25  57  86  16  48  49  11  39  38   8  30  59   8  24  90   9  19 106   4  10 145  11   4 165  13   3 173  18   3 164  15   1 141   9   2 138   6   2 162  12   3 171  20   5 155  10   2 143   8   4 150  12   4 152   5   2 160  16   3 161  13   3 160  14   3 152  14   1 155  15   4 155  14   2 162  22   5 154  16   3 138   9   9 135  14  16 133  23  27 122  21  34 117  26  41 111  24  48 107  26  57 102  30  65  80  20  75  93  27  86 114  43  96 114  46 107 104  44 119  97  49 132  72  45 155  18  45 171   4  45 179   4  48 189   4  51 200   3  53 212 
  2  56 221   3  53 210   3  51 200   5  49 189   6  46 179  11  43 166  27  42 155  56  40 135  73  36 121  85  34 111  95  32 101  99  26  90 113  30  82 112  27  72  79  20  63  43  15  56  38  13  47  52  11  40  69  10  34  83   7  25 122  10  19 151   9  16 166  17  11 165  17   7 153  11   2 143   4   1 163  19   5 159   8   3 154  13   2 142   5   1 134   4   1 157  14   3 162  13   3 154  19   4 152  15   4 162  22   3 152  13   7 153  19  13 149  18  15 144  17  21 141  21  28 139  24  33 127  21  40 116  23  46 108  26  56  96  28  65  91  26  72  80  27  82  77  28  92  92  36 101 101  39 111  95  44 121  90  46 132  84  46 144  78  49 159  59  51 181  24  52 192   4  51 200   2  53 211   2  56 222 
  1  59 232   2  56 222   3  53 211   4  51 200   8  48 189  18  46 176  39  45 162  62  46 147  68  38 136  76  36 126  91  36 116  93  32 106  99  28  98 104  29  88  79  24  79  42  18  70  37  18  63  40  15  55  54  14  50  71  12  43 118  18  40 140  16  33 149  18  29 155  19  24 162  31  27 146   9  17 156  19  17 144   7  13 159  18  13 146  12  13 116   5  12 140  15  13 158  24  15 142  23  19 130  11  17 150  20  20 153  27  24 146  27  29 138  27  34 129  21  38 128  24  44 127  25  49 120  26  56 114  29  64 100  29  75  87  32  86  80  33  91  78  33 100  76  32 105  89  41 116  82  39 125  74  41 135  73  45 146  71  47 158  67  51 171  58  55 183  33  52 198   9  55 211   3  56 222   2  59 233 
  1  61 244   1  59 233   2  56 222   5  53 211  11  51 199  25  49 186  43  46 172  59  47 161  63  42 151  68  39 141  77  39 131  80  35 122  88  32 113  95  33 103  70  27  96  48  26  89  36  21  79  40  21  74  47  18  66  67  17  60 111  21  56 123  17  50 139  23  46 141  22  41 143  23  39 141  17  36 144  20  33 138  13  31 154  27  31 137  18  29 112  10  28 123  10  29 150  30  32 127  21  34 119  13  36 138  20  40 144  29  43 134  27  44 131  30  51 123  27  56 115  27  62 116  31  69 109  29  74 102  31  80  94  32  89  72  31 108  62  33 118  75  37 115  79  42 123  75  41 131  63  39 140  50  38 150  59  48 162  62  54 172  53  53 183  45  55 199  26  55 213  12  58 224   3  59 233   1  61 244 
  0  64 255   1  61 244   2  58 233   6  57 222  14  53 210  28  53 197  41  50 186  51  50 176  54  43 165  63  45 156  58  40 146  59  35 137  75  36 128  85  38 120  62  29 111  49  28 104  42  26  97  39  24  90  43  22  83  58  21  78 100  29  76 111  21  66 128  28  64 126  23  60 128  21  56 130  22  53 133  24  51 130  20  50 142  33  49 122  20  48 108  15  48 123  19  49 134  27  50 119  25  52 113  22  53 128  29  56 126  26  60 124  29  63 120  32  69 120  38  77 114  38  82 109  36  86 105  35  92  92  31  96  83  34 107  77  37 114  72  41 127  67  40 133  68  44 139  62  43 146  54  43 155  46  45 166  45  49 176  45  52 186  42  56 197  34  55 209  23  59 221  10  60 234   2  62 245   0  64 255 
