P3
25 20
255
  0  64 255  34  56 221  66  47 189  97  40 158 127  32 128 154  25 101 179  19  76 201  14  54 220   9  35 235   5  20 246   2   9 253   1   2 255   0   0 253   1   2 246   2   9 235   5  20 220   9  35 201  14  54 179  19  76 154  25 101 127  32 128  97  40 158  66  47 189  34  56 221   0  64 255 
 26  57 229   0 110 193   0 136 159   0 160 126   0 184  95   0 205  66   0 225  40   0 243  16   0 255   0   0 255   0   0 255   0   0 255   0   0 255   0   0 255   0   0 255   0   0 255   0   0 255   0   0 243  16   0 225  40   0 205  66   0 184  95   0 160 126   0 136 159   0 110 193  26  57 229 
 51  51 204   0 130 168   0  33 255   0  24 255   0  16 255   0   8 255   0   1 255   0   0 255   0   0 255   0   0 255   0   0 255   0   0 255   0   0 255   0   0 255   0   0 255   0   0 255   0   0 255   0   0 255   0   1 255   0   8 255   0  16 255   0  24 255   0  33 255   0 130 168  51  51 204 
 73  46 182   0 147 144   0  27 255 185  18 255 220   9 255 253   1 255 255   0 255 255   0 255 255   0 255 255   0 255 255   0 255 255   0 255 255   0 255 255   0 255 255   0 255 255   0 255 255   0 255 255   0 255 255   0 255 253   1 255 220   9 255 185  18 255   0  27 255   0 147 144  73  46 182 
 92  41 163   0 163 123   0  21 255 209  12 255 246 248   9 255 255   0 255 255   0 255 255   0 255 255   0 255 255   0 255 255   0 255 255   0 255 255   0 255 255   0 255 255   0 255 255   0 255 255   0 255 255   0 255 255   0 255 255   0 246 248   9 209  12 255   0  21 255   0 163 123  92  41 163 
109  37 146   0 177 105   0  16 255 230   6 255 255 255   0   0 255 255   0 255 255   0 255 255   0 255 255   0 255 255   0 255 255   0 255 255   0 255 255   0 255 255   0 255 255   0 255 255   0 255 255   0 255 255   0 255 255   0 255 255 255 255   0 230   6 255   0  16 255   0 177 105 109  37 146 
123  33 132   0 188  90   0  12 255 248   2 255 255 255   0   0 255 255   0   0   0   0   0   0   0   0   0   0   0   0   0   0   0   0   0   0   0   0   0   0   0   0   0   0   0   0   0   0   0   0   0   0   0   0   0   0   0   0 255 255 255 255   0 248   2 255   0  12 255   0 188  90 123  33 132 
134  30 121   0 196  78   0   9 255 255   0 255 255 255   0   0 255 255   0   0   0 128 128 128 128 128 128 128 128 128 128 128 128 128 128 128 128 128 128 128 128 128 128 128 128 128 128 128 128 128 128 128 128 128   0   0   0   0 255 255 255 255   0 255   0 255   0   9 255   0 196  78 134  30 121 
141  29 114   0 202  70   0   7 255 255   0 255 255 255   0   0 255 255   0   0   0 128 128 128 128 128 128 128 128 128 128 128 128 128 128 128 128 128 128 128 128 128 128 128 128 128 128 128 128 128 128 128 128 128   0   0   0   0 255 255 255 255   0 255   0 255   0   7 255   0 202  70 141  29 114 
145  28 110   0 205  66   0   6 255 255   0 255 255 255   0   0 255 255   0   0   0 128 128 128 128 128 128 128 128 128 128 128 128 128 128 128 128 128 128 128 128 128 128 128 128 128 128 128 128 128 128 128 128 128   0   0   0   0 255 255 255 255   0 255   0 255   0   6 255   0 205  66 145  28 110 
145  28 110   0 205  66   0   6 255 255   0 255 255 255   0   0 255 255   0   0   0 128 128 128 128 128 128 128 128 128 128 128 128 128 128 128 128 128 128 128 128 128 128 128 128 128 128 128 128 128 128 128 128 128   0   0   0   0 255 255 255 255   0 255   0 255   0   6 255   0 205  66 145  28 110 
141  29 114   0 202  70   0   7 255 255   0 255 255 255   0   0 255 255   0   0   0 128 128 128 128 128 128 128 128 128 128 128 128 128 128 128 128 128 128 128 128 128 128 128 128 128 128 128 128 128 128 128 128 128   0   0   0   0 255 255 255 255   0 255   0 255   0   7 255   0 202  70 141  29 114 
134  30 121   0 196  78   0   9 255 255   0 255 255 255   0   0 255 255   0   0   0 128 128 128 128 128 128 128 128 128 128 128 128 128 128 128 128 128 128 128 128 128 128 128 128 128 128 128 128 128 128 128 128 128   0   0   0   0 255 255 255 255   0 255   0 255   0   9 255   0 196  78 134  30 121 
123  33 132   0 188  90   0  12 255 248   2 255 255 255   0   0 255 255   0   0   0   0   0   0   0   0   0   0   0   0   0   0   0   0   0   0   0   0   0   0   0   0   0   0   0   0   0   0   0   0   0   0   0   0   0   0   0   0 255 255 255 255   0 248   2 255   0  12 255   0 188  90 123  33 132 
109  37 146   0 177 105   0  16 255 230   6 255 255 255   0   0 255 255   0 255 255   0 255 255   0 255 255   0 255 255   0 255 255   0 255 255   0 255 255   0 255 255   0 255 255   0 255 255   0 255 255   0 255 255   0 255 255   0 255 255 255 255   0 230   6 255   0  16 255   0 177 105 109  37 146 
 92  41 163   0 163 123   0  21 255 209  12 255 246 248   9 255 255   0 255 255   0 255 255   0 255 255   0 255 255   0 255 255   0 255 255   0 255 255   0 255 255   0 255 255   0 255 255   0 255 255   0 255 255   0 255 255   0 255 255   0 246 248   9 209  12 255   0  21 255   0 163 123  92  41 163 
 73  46 182   0 147 144   0  27 255 185  18 255 220   9 255 253   1 255 255   0 255 255   0 255 255   0 255 255   0 255 255   0 255 255   0 255 255   0 255 255   0 255 255   0 255 255   0 255 255   0 255 255   0 255 255   0 255 253   1 255 220   9 255 185  18 255   0  27 255   0 147 144  73  46 182 
 51  51 204   0 130 168   0  33 255   0  24 255   0  16 255   0   8 255   0   1 255   0   0 255   0   0 255   0   0 255   0   0 255   0   0 255   0   0 255   0   0 255   0   0 255   0   0 255   0   0 255   0   0 255   0   1 255   0   8 255   0  16 255   0  24 255   0  33 255   0 130 168  51  51 204 
 26  57 229   0 110 193   0 136 159   0 160 126   0 184  95   0 205  66   0 225  40   0 243  16   0 255   0   0 255   0   0 255   0   0 255   0   0 255   0   0 255   0   0 255   0   0 255   0   0 255   0   0 243  16   0 225  40   0 205  66   0 184  95   0 160 126   0 136 159   0 110 193  26  57 229 
  0  64 255  34  56 221  66  47 189  97  40 158 127  32 128 154  25 101 179  19  76 201  14  54 220   9  35 235   5  20 246   2   9 253   1   2 255   0   0 253   1   2 246   2   9 235   5  20 220   9  35 201  14  54 179  19  76 154  25 101 127  32 128  97  40 158  66  47 189  34  56 221   0  64 255 
