P3
60 65
255
 11   7  32  10   6  30   9   5  28   9   4  27   9   4  27   9   5  28   8   4  27   8   4  27   9   5  28  12   7  30  11   6  29  13   8  31  12   7  30  12   9  32  13   9  32  11   7  30  10   9  30   4   7  29   1   6  30   5  10  35   4   8  34   6   8  31   6   7  32   7   7  33   9   9  37   8   8  37   8   7  39  10  10  38  10  10  38   9   9  38  13  10  39  13  10  39  13  10  39  15  13  41  13  13  40  12  10  35  11   9  34  10   8  32  11   8  34  10   6  33  10   6  31  10   6  33  12   9  38  12   9  38  13  10  39  13  10  39  14  11  40  13  10  39  12   9  38  13  10  39  13   9  38  12  11  42  12  12  42  10   9  40  11   8  40   9   9  40   9   9  40  12   8  38  14   9  39  13   8  38 
 10   6  31   9   5  29   9   6  28  11   6  29  11   6  29   9   5  29   8   5  28   9   5  28   9   5  28  10   6  29  11   6  29  11   6  29  12   7  30  13   9  32  13   9  32  10   6  29  10   9  30   6   6  29   6   6  32   6   7  31   8   9  33   6   7  31   7   8  33   9   9  35   8   8  36   9   8  37  11   9  38  11   9  37  11   9  37  13  12  39  15  12  40  15  12  41  13  11  40  12  10  40  12  10  41  14  12  40  12   9  38  11   7  36  12   8  37  12   8  34  11   7  32  12   8  36  11   8  38  13  10  40  12  10  39  12   9  39  11   8  37  10   7  35  12   9  38  13  10  40  12  10  39  11   8  38  13  10  40  10  10  40  10  10  41  10  13  42   8  11  42  11  10  39  15  10  39  17  12  42 
 12   8  34  11   8  31  10   7  31  10   6  31  10   6  31   8   6  30   8   6  29   9   7  29   9   5  28  11   6  29  12   7  30  11   6  29  11   6  29  13   9  32  12   9  32  12   8  31  11   9  31  10   8  30  10   7  33   9   7  32   8   5  29   6   6  30   9   9  34  10  10  36  11   7  33  13  11  37  15  12  38  13  13  39  12  12  38  13  12  40  16  12  41  16  13  42  12  12  40  13  11  40  13  10  39  12   9  38  12   9  38  13   7  38  12   7  37  12   8  34  12   8  35  13   9  40  13  10  41  12  11  42  11  10  41  10   9  40  10   9  39  10  10  36  13   9  38  13  11  40  12  11  42   9  10  38  11  12  40  10  11  41   9  10  40  11  12  42   9  10  42   8   9  37  12  10  36  17  12  42 
 12   8  35  14  10  36  13   9  34  11   7  34  11   7  34   8   5  30   7   6  29   6   7  30   7   5  29   9   7  31  13   8  33  10   6  29  11   7  30  11   7  30  11   7  30  12   8  31  14  11  32  11   8  30  11   8  33  10   7  34   9   6  33   6   7  33   9   7  34  11   8  35  14  10  37  15  12  39  15  13  40  14  14  42  13  13  40  12  10  42  12   9  39  13  10  39  11  11  41  12  12  42  12  11  42  11   8  37  11   8  37  13  10  39  13   8  38  13   8  37  14  11  40  12  10  40  12  11  42  13  12  43  11  10  41  12  11  42  11  10  41  10   9  40  10   9  40  10   9  40  12  11  42  10  12  40  11  14  41  11  12  42  11  11  42  12  11  42  12  12  40  10   9  37  11   9  37  16   9  39 
 11   7  30  11   7  31  11   7  32  10   6  33  10   6  33  10   8  32   8   6  31   6   7  30   6   6  34   8   7  34  12   8  33  11   7  30  10   6  29  11   7  30  10   6  29  11   7  31  12   9  31  11   8  30  12   9  34  10   7  34  11   8  36  10   9  40  12  10  38  13  10  37  13   9  36  15  11  37  23  21  41  25  26  42  28  28  51  22  22  46  14  12  38  12   9  38  11  11  37  13  12  40  12  11  42  11   8  37  11   8  37  12  10  39  12  10  41  12  10  42  14  11  40  14  12  42  12  11  42  13  12  43  11  10  41  12  11  42  12  10  41  10   9  40   9   8  39  10   9  40  10   9  40  14  13  41  12  12  40  11  12  42  12  12  43  13  12  43  11  11  39  10   9  37  12   9  38  10   9  38 
 10   6  28   9   5  30   9   5  30   9   7  31   9   7  31  10   8  32  10   8  34   8   6  33   7   7  33   7   7  33   9   7  32  12   8  31  11   7  30   9   5  28  10   6  29   9   5  28  10   6  29  11   7  29  14   9  33  12   9  37  11   9  37  10  11  39  13  11  39  13  10  37  15  14  32  95  93  99 166 164 159 206 205 197 207 205 197 167 165 163  94  94 101  13  11  32  12   9  37  12   9  36  13  10  38   9   9  37  10  10  38  12  11  43  12  11  42  10   9  40  13   9  41  12  10  41  11  10  41  12  11  42  11  10  41  13  10  38  13  10  39  12   9  38   8   7  38  10   8  40  10  10  40  11  11  39  13  13  41  13  12  41  14  13  41  14  14  42  14  11  39  14  11  36  11  12  37  10  11  39 
 11   7  33  10   6  32  10   6  29   9   6  30  10   6  31   9   7  31  10   7  33  10   7  34   9   8  32   9   8  32   8   6  30  10   8  30  12   7  30  10   6  29  10   6  29  11   7  30  12   8  30  13   9  34  14  10  36  15   9  40  12  10  40  15  12  41  15  13  43  11   9  28 160 159 156 242 236 222 254 248 230 252 246 227 253 248 229 255 251 238 246 245 237 163 164 165   3   3  21  13  12  40  12  10  41  11  12  40  10  11  39  11  11  41  12  12  42  11  11  40  11  10  38  12  11  41  13  13  41  11  10  41  10   9  40  11   9  40  11  10  40  11  10  40  10  10  40  11  11  41  11  12  40  11  12  40  11  12  40  14  13  39  15  14  41  13  13  40  14  11  40  15  12  39  13  10  37  11   9  36 
 10   6  30   9   5  28  10   6  29   9   5  30  10   6  31   7   6  29   8   6  32   9   6  33  11   9  33   9   7  31   8   6  30   8   6  28  12   7  30  10   6  29  10   6  29  11   7  30  11   7  29  12   8  34  13   9  36  17  12  41  19  10  40  24  11  40   5   0  24 140 139 139 241 231 216 250 243 223 255 252 236 255 255 243 252 252 240 247 242 227 248 243 230 254 254 246 119 119 124   4   5  31  12  11  42  12  13  41  12  13  41   6   7  28   5   5  21   7   5  22  10  10  34  12  12  40  12  12  40  13  12  43  11  10  41  11  10  41  11  10  41  11  10  41  11  12  42  12  13  42  12  13  41  11  12  40  11  12  40  14  13  39  18  14  41  18  14  41  14  12  37  14  12  37  13  13  39  14  10  37 
  9   5  28  10   6  29  10   6  29   9   7  29   9   7  29   8   6  31   8   6  30   9   7  31   8   6  30   8   6  30   9   5  31  10   5  28  10   5  28  10   6  29   9   5  28  11   7  30  11   7  29  12   8  34  13   8  36  17   6  33  62  25  54  80  27  57  56  29  42 232 222 209 248 238 217 252 249 234 154 154 151  25  24  23  35  34  33 191 190 186 247 244 233 244 240 228 225 226 222  11  11  30  10  10  37  37  37  54 137 136 135 219 219 214 240 240 235 220 219 219 137 136 137  37  39  54  11  16  42  10  11  41  11  12  42  12  11  42  11  11  41  10  11  41  10  12  42  12  14  43  14  14  42  12  12  40  12  12  40  13  13  40  15  14  38  15  13  37  16  12  37  16  13  38  13  11  35  14  11  38 
 11   7  32  10   6  30  11   8  30   8   6  28   8   6  28  10   8  29  11   8  31   9   7  30  10   7  31  11   8  31  11   7  29  12   7  30  12   7  29  10   6  29   9   6  30   9   4  28  11   6  30  17  11  36  24  12  39  43  13  38  92  23  49 135  15  53 172  89 104 243 221 204 252 242 220 216 213 203  41  39  39   5   1   1   4   1   0  63  62  63 235 230 221 244 236 224 241 239 230  59  58  68  67  68  79 225 225 217 255 255 240 254 252 234 252 251 238 252 251 240 255 255 249 224 224 219  68  70  83  11  14  42  11  11  42  12  12  42  11  11  42  10  11  41  10   8  39  11   9  40  12  12  41  14  13  42  15  14  42  11  11  39  12  11  37  13  12  38  17  13  38  17  13  38  14  12  37  15  11  38 
 11   7  36  10   5  34   8   5  31   9   7  31   9   7  31  11   7  32  13   8  32  10   8  30   9   5  28  11   7  30  12   8  31  15   7  30  11   5  30   4   5  26   0   5  27   8   4  25  22   7  30  30  12  34  42  13  36 107  26  51 128  18  30 190  25  32 206  92  98 244 215 196 250 232 215 217 209 199  46  44  41   7   1   6  24  16  15 108  99  72 231 215 181 248 233 208 236 235 234  86  86  93 208 207 203 254 251 232 255 255 239 231 229 223 232 230 225 254 255 245 244 243 233 248 248 239 217 218 212  25  28  44   9  13  43  10  11  41  11  11  41  11  10  41  12  11  42  12  11  42  12  11  42  15  12  41  15  12  41  13  13  41  13  13  41  12  13  41  14  11  38  16  12  39  16  12  39  16  12  39 
 11   7  34   9   9  36   7   9  34   9   8  33  12   8  34  14  10  35  14  11  34  13  11  33  10   6  29  11   7  30  12   6  29  11   5  29  46  10  32 115  17  43 145  19  43 125  17  53  49  13  29  68   9  37 128  15  48 170  21  45 156   7  22 198  19   2 207  61  53 237 201 181 243 213 198 246 224 210 165 158 154 123  92  33 234 180  28 240 185   8 247 195  10 251 205  22 246 213  86 222 205 132 249 246 227 255 253 234 163 163 162   5   5   5   5   3   3 163 163 161 249 250 241 231 233 223 246 247 239 107 108 110   9  13  40  11  12  42  10  11  41   9  10  40  11  12  42  12  13  43  11  11  42  14  11  42  15  12  43  16  13  42  16  13  42  16  13  42  16  13  42  15  12  41  15  12  41  16  13  42 
 11   7  31   6   7  29   7   8  30   9   9  30  12   9  31  14  10  35  12  10  32  11   9  32  10   6  30  11   7  30  11   6  30  27   9  34 107  15  33 158  16  21 190  19   8 191  16   1 206  38  35 168   7  28 195  22   4 205  23   0 205  26   2 204  26   3 198  17   1 224 158 145 231 190 174 229 182 158 231 166  78 239 146  14 230 133   5 232 149   8 242 173   5 244 184   8 238 185   3 253 209  12 239 211 106 228 222 208   5   4   3   9   5   3  11   8   7  10  10   8 255 255 255 227 228 223 219 219 216 173 171 172   5   6  31  10  11  41  11  12  42  10  11  41  11  12  42  14  13  43  16  12  43  14  11  42  15  12  43  17  13  42  16  12  41  15  12  41  17  14  43  17  14  43  15  12  41  13  10  39 
 12   8  31  10   7  29  10   9  30  11   8  31  11   8  31  12   8  31  11   7  29  10   6  32   8   4  32  12   8  36  16   7  36  57   9  36 116  11  24 170  18   5 200  22   3 214  29   5 210  26   2 204  18   2 205  26   2 206  31   3 193  21   3 179  17   2 168   8   1 170  31  30 197 107  86 216 128  53 210  99   3 208  94   5 207  93   5 222 117   6 228 133   8 233 145  12 237 163   4 243 183   5 251 201   4 107  80  29  12   1   3   5   1   0   0   0   0  49  46  45 249 246 242 222 220 216 212 210 209 175 173 175   4   5  28  10  11  42  10  11  41  11  12  42  14  12  40  17  12  41  16  11  41  16  12  41  16  13  41  18  12  42  16  11  41  16  11  41  14  11  40  16  13  42  15  12  41  12  11  42 
 13   8  32  12   7  30  13   9  30  13   6  30  12   6  29  12   8  30  12   8  31  14  10  34  11   7  32  11   6  33  38  12  40 120  17  19 145  12   7 169  11   2 194  20   3 205  22   3 199  21   3 197  23   3 190  20   3 181  18   4 162   6   2 153   3   3 152   5   3 162  19   6 174  53   5 176  65   6 178  63   3 180  64   3 184  69   5 190  77   6 199  89   9 207 101   8 228 131  10 231 156   8 245 182   7 188 129  12  73  36  35  56  44  44  89  83  82 201 191 191 224 214 214 209 205 205 213 209 213 133 133 135   8   9  35  11  13  42  12  12  42  13  12  43  11  11  41  14  11  42  14  10  41  14  12  43  14  12  43  14  10  41  15  11  41  16  12  41  13  12  42  11  10  40  13  12  40  14  12  41 
 15  11  30  14   9  29  12   7  29  14   6  30  13   5  29  11   6  29  13   7  30  18  11  35  15   6  33  13   6  30  29   6  27 111  11  20 149  16   5 167  11   5 179  14   3 181  15   3 177  14   1 174  16   4 163   9   2 154   4   2 154  10   8 147   5   3 151  11   7 157  33   4 152  44   3 164  57   2 168  55   2 165  52   4 165  52   1 163  49   2 187  76  13 216 113  17 204 100   9 207 111  12 230 143   9 228 149  15  91  30  32 133  73  86 167 123 131 188 158 167 205 180 189 208 188 197 220 205 212  43  42  54  12  12  42  10  11  42  12  12  43  13  12  43   9   9  40  13  10  41  14  10  41  11  10  41  11  10  41  13  10  41  14  12  41  14  13  41  12  11  42  12  11  41  12  12  40  12  12  40 
 16  10  30  12   8  31  12   8  32  14   9  31  13   8  30  13   8  31  17   8  31  29  12  34  29   9  35  30  10  38 103  18  32 151  16   8 155   6   2 161   8   2 166   8   3 165   6   2 159   6   3 155   4   2 150   4   1 152   7   2 153  11   2 146   5   2 145   9   1 146  29   3 159  52   3 156  47   2 160  50   2 159  46   2 164  52   5 156  44   5 157  46   4 156  48   4 158  51   8 194  83   8 229 121   9 217 120  13  97   5   7 129  37  46 156  76  93 180 115 136 197 148 164 205 161 171 184 126 137  62  26  50  22  15  49  12  12  44  13  14  45  13  14  45  12  13  44  11  11  42  14  11  42  11  10  41  10   9  40  12  11  42  12  11  42  11  10  41  12  13  41  13  14  42  13  14  42  11  12  42 
 13  12  30   9   9  30   9   9  31  13   9  31  13   8  30  13   6  30  15   8  30  21   9  29  52  20  44  96  14  34 147  12   8 161  14   2 163  10   4 173  17   4 175  15   3 172  14   2 163   8   2 160  10   2 155  10   2 148   7   2 149  12   5 146   6   1 146  14   3 150  35   3 162  52   6 160  52   3 160  51   3 156  48   2 154  45   6 146  37   4 145  40   3 134  31   3 148  43   7 170  56   7 216 101   9 206  98  11 115   5   4 118   6   3 126   9  10 151  45  60 180  86 106 190  74  83 213  37  51 205  45  74  96  22  61  15  16  46  14  12  46  11  12  44  12  11  43  12  12  43  13  12  43  12  11  42  11  10  41  14  12  42  11  10  41  10   9  40  12  12  40  13  13  41  13  14  40  12  12  41 
 12  10  33  10   8  31  11   8  31  13   8  31  13   8  31  14   6  30  14   7  30  16   6  27  29   5  30 131  14  18 158  14   1 155  12   2 159  10   1 161   8   0 172  18   3 172  14   4 160  10   2 152  10   1 147   8   3 139   5   1 138   8   2 142   9   1 146  21   2 156  45   3 162  50   3 158  51   4 155  50   4 157  51   1 146  38   4 143  39   3 140  40   4 124  25   3 132  33   5 145  38   6 186  75  10 160  53   7 114   4   5 115   2   1 125   5   2 132   6   5 150  10  12 189  15   4 210  16   7 219  26  46 207  30  70  94  22  58  18  15  46  23  17  52  16  11  45  17  12  45  17  12  44  12  11  42  12  11  42  16  13  41  13  12  42  12  11  42  11  11  39  12  12  39  13  13  39  12  12  38 
 12   9  30  12   9  30  12   8  33  13   8  31  12   7  30  12   6  33  12   5  32  18  10  34  37   8  32 138  14  11 155  11   2 149   6   2 155   8   1 160  10   1 163  12   3 162  14   2 147   6   3 146   9   2 139  13   5 135   8   2 127   5   2 130   6   1 145  27   3 154  46   3 156  50   5 143  39   2 145  41   1 146  47   2 143  43   2 139  38   3 133  36   2 128  32   6 121  22   2 137  30   6 159  45   4 135  17   4 119   6   3 119   3   1 125   3   2 129   1   3 160   4   2 198  20   7 214  22  11 214  15  24 223  28  55 219  32  74 139  24  74  32  11  45  24  14  46  17  11  43  17  14  46  13  14  44  13  14  44  13  12  43  11  10  41  11  11  41  12  11  42  11  10  38  13   9  36  15  13  37 
 15  12  32  13  10  31  14  10  34  13   9  33  12   7  31  13   7  33  14   7  34  19   9  33  48  10  29 136  18  12 146  10   2 151   9   3 156  11   2 154   9   1 154   9   2 149   9   1 148  10   1 147  12   3 134   5   1 127   4   2 124   5   4 126   6   2 141  24   4 143  40   4 138  39   2 142  40   3 134  35   3 134  37   5 139  43   5 127  34   3 124  33   5 118  29   6 115  19   3 129  25   5 151  35  10 130   7   5 119   4   1 118   4   1 131   4   1 136   1   1 151   1   4 185  10   4 205  17  11 212  14  20 216  17  33 222  29  54 228  34  71 175  29  75  70  27  59  22  12  42  17  13  45  13  13  44  12  13  43  13  12  43  14  14  41  13  13  39  11  11  38  11  10  36  13  10  36  15  13  37 
 15  12  32  14   9  33  14   8  32  13   9  36  14  10  37  13   7  35  18   8  35  31   8  32  57  11  29 112  15  21 139  12   2 146   9   3 148   8   1 142   3   1 147   7   2 149   7   2 147   8   1 151  13   3 146  10   2 134   8   1 122   2   2 129   7   2 136  18   2 131  28   4 131  32   5 118  24   3 116  25   3 121  27   6 125  31   6 118  24   4 116  25   4 114  23   6 117  22   5 121  15   2 131  12   2 126   3   2 114   3   2 122   6   3 147  11   3 143   5   3 158  10   2 181  18   4 199  22   5 203  16   6 200   8   8 208  10  23 210  14  42 204  25  61 153  26  70  36  14  45  19  12  46  13  13  45  13  14  45  13  12  43  13  12  42  12  12  41  10  10  36  11  10  35  13  11  34  13  11  33 
 14  10  35  13   9  34  14  10  35  14  10  36  16  12  39  17  12  42  20  13  41  22   6  32  35   9  32  77  10  20 137  11   2 140   7   2 148  12   3 148   8   1 150   7   2 150   8   2 144   5   2 146   7   2 145   6   1 145   9   2 139  12   3 141  10   1 138  13   2 125  21   2 116  23   6 105  16   5 112  25   9  96  14   7 104  19   6 116  26   5 108  18   3 105  13   4 113  13   2 121  12   2 128   8   3 123   4   2 109   2   1 138  10   5 162   9   3 178  18   3 183  18   3 162   7   2 171  12   3 194  17   1 200  19   6 192   5   6 209  14  25 208  20  48 145  13  48  29  12  43  16  10  43  12  12  42  13  13  43  14  13  41  13  11  40  14  12  37  13  11  35  14  11  36  13   9  34  11   7  30 
 13   9  34  13   9  34  14  10  35  13   9  36  16  12  39  15  10  40  15  11  41  17   6  34  24   5  31  60   7  20 125   8   2 131  10   5 136  13   4 145  14   3 146  10   3 143   9   2 142   6   3 146  10   5 141   4   2 134   5   2 135   6   2 135   5   2 128   6   3 122  13   3 104   9   3  97   9   4  96  16   9  77   7   4  86  14   6 100  20   9  95  11   3 104   8   3 119  11   3 123   7   1 119   4   2 108   1   2 116   5   2 139   9   4 163  11   3 182  13   3 199  27   7 178  19   7 159   7   3 181  13   4 201  22   4 197  14   2 204  11   9 214  28  43 165  26  58  53  21  54  20  12  42  14  11  42  13  10  41  14   9  39  16  12  41  15  13  37  13  11  35  14  11  35  13   9  34  11   7  30 
 12  12  38  13   9  35  13  10  32  15  11  36  15  11  36  16  12  38  16  12  41  18   9  36  19   5  28  36   5  24 114  11   7 113   7   2  47   2   3  61   4   4 104   7   2 124  11   5 131  11   2 130   5   1 124   3   2 128   7   2 128   7   2 128   7   1 115   2   1 118   4   2 119   8   0 105   7   4  83   6   4  73   4   4  76   7   4  84  10   5  96   9   3 111  10   2 120   6   2 127   7   2 114   4   3  98   2   1 113   7   3 130   7   2 158  14   3 166  11   3 177  10   4 199  28   8 172  10   3 180  14   3 193  17   1 203  16   3 212  18  13 199  15  27 192  34  59  86  26  53  22  13  42  16  12  41  13  10  38  12   9  36  14  11  38  13  11  34  13  10  38  13   9  36  13   9  34  12   8  33 
 12  10  37  10   8  33  12   8  32  13   9  33  12   8  33  14  10  37  15  10  41  15  11  40  23   8  31  91  12  19 147  16   4 137  10   2  63   3   2  10   2   2  17   1   2  39   3   2  58   4   4  79   6   4  91   5   4 103   7   3 124  10   7 130  13   5 131  10   3 135   8   3 138   8   1 128   6   2 114   7   2  78   1   2  65   3   4  85   5   3 106   7   3 113   5   3 114   1   1 127   4   1 125   5   3  88   2   1  92   1   1 119   3   2 138   6   3 152   4   2 162   5   3 186  19   3 177  16   5 182  16   2 198  22   3 203  18   4 207  13  13 201  17  37 139  13  43 119  27  51  49  22  51  17  12  42  13   9  39  12  10  38  12  10  38  13  11  37  15  11  37  12   8  34  14  10  33  14  10  35 
 10   7  35   9   6  30  10   7  29  11   7  29  12   8  34  14  10  37  13  10  37  13   5  33  50   8  29 135  15   9 152  11   1 141  10   1  96   3   1  26   1   2   7   1   0   9   2   0  10   2   2  12   2   2  19   2   3  25   2   2  29   4   3  39   4   5  94   6   3 141  15   3 147  15   3 145  19   4 136  14   1 131  18   8 107   9   4 113   7   3 121   8   2 126   8   1 120   3   3 130   8   2 128   8   2  90   1   0  98   4   1 103   3   1 116   2   2 166  18   6 168   8   3 167   7   2 159   6   2 167  13   1 184  18   1 193  16   3 198  11   5 203  17  42 144  30  63  81  18  41  65  20  49  18  12  42  14   9  39  15  12  41  13  10  39  12   9  37  14  13  37  13  11  35  14  10  32  15  11  34 
 12   8  35  11   7  30  10   7  29  11   7  29  11   8  30  12   8  33  14  10  35  34  12  37 113  14  19 144  14   0 153  11   2 143  10   2 121   6   3  70   5   2  10   4   2   8   3   1   4   3   1   4   2   0   6   2   1   7   1   0   7   2   0   6   1   1  17   1   1  60   5   4  82   2   2 111   4   2 123  14   4 124  15   5 126  11   2 137  18   5 128  10   2 121   7   2 112   3   2 124   6   3 122   7   2 100   2   2  97   4   4  83   1   0  99   2   1 158  18   2 175  19   6 165   8   3 155  13   4 147   8   2 159  13   2 180  16   3 191  13   3 206  22  36 192  22  64 120  27  60  83  24  43  24  14  44  14  11  42  14   9  39  13  10  39  12   9  38  13  10  37  13   9  36  15  10  36  17  14  36 
 12   8  35  12   9  34  11   7  34  10   7  32  12   8  34  12   8  32  15   6  33  72  12  25 114  12   3 133  12   2 145  12   1 139  10   2 135   8   2 127   8   3  52   5   3   8   3   1   5   2   1   5   2   0   6   2   1   5   3   1   5   3   0   5   3   1   4   1   0   5   2   1  11   2   1  35   3   2  51   4   5  45   2   2  74   4   4 103  10   6 112  10   5 111   7   2 107   5   2 114   5   2 120  10   4 122  10   5  96   4   2  71   1   1  87   1   2 145  10   2 173  23   4 147   1   2 143   7   2 129   1   3 136   3   2 163  10   3 187  16   2 202  19  20 210  28  53 187  39  76 131  32  59  38  15  44  18  11  40  14   9  39  13   9  38  12   9  38  12   9  37  12   9  36  14  11  36  18  14  40 
 13   8  35  13   8  36  13   9  36   9   7  31  10   8  32  13   8  31  29   8  30  90  17  21  62   4  10 104   8   7 137  13   2 138   8   2 142   8   2 145  13   5  96   7   5  15   2   2   7   1   1   7   1   1   7   3   2   5   4   2   4   3   1   3   3   1   2   1   0   7   2   1   7   3   0   5   3   0   5   2   0   9   1   1  16   3   1  26   2   3  48   3   3  69   7   3  83   6   2  98   6   2 112   8   4 116   4   2 107   6   4  78   1   1  92   3   3 125   3   2 166  19   3 150   6   2 136   6   1 125   2   1 126   2   1 159   9   3 182  18   3 191  17  12 191  16  40 177  22  56 125  20  50  70  22  48  30  14  42  12   8  38  14  10  39  14  11  40  15  12  41  14  11  40  15  12  39  15  13  40 
 13   9  35  12   7  34  11   7  33   7   7  30  10  10  33  22  11  31  53  13  27  57  11  19  33   6  21  83   8  11 130  11   1 139   8   2 139   4   0 142   7   3 119   6   3  52   3   4   3   3   3   6   2   2   7   3   2   7   3   0   7   3   0   5   2   0   5   1   0   5   1   0   6   2   0   8   3   0   8   4   1   8   3   1   7   2   0   6   3   0   8   2   0  12   2   0  25   2   1  54   2   2  92   6   6  95   3   2  98   3   2  91   5   3  93   3   1 114   2   3 146  13   2 153  13   3 139   6   1 129   5   2 127   2   2 151  12   3 176  18   3 184  18   6 183  13  22 167  24  50 106  17  40  73  27  52  27  12  38  13   8  39  13  10  38  14  11  38  15  12  41  13  10  39  15  12  41  17  14  43 
 15  11  33  14  10  32  11   8  29  11   8  28  15  12  32  28   8  30  55  12  26  34   6  24  21   5  29  58   8  22 103  12   4 136  14   2 147  11   3 146   6   2 148  11   2 133  13   5  24   5   4   5   2   2   6   2   1   7   3   0   7   3   0   7   3   0   5   1   0   5   1   0   3   2   0   5   3   0   6   2   0   6   4   1   5   3   0   7   3   0   4   3   0   7   3   0   9   3   1  11   2   2  18   1   2  61   3   5  95   9   9  80   4   2  88   5   4 101   5   3 109   6   3 142  21   4 132   6   1 138   8   3 140   9   1 140   4   2 169  18   2 183  17  10 173  13  20 160  18  37 102  17  50  54  19  47  23  12  44  15  10  40  14  10  40  14  11  41  14  11  40  14  11  40  15  12  41  16  13  42 
 14   9  33  14  10  30  12   8  31  13   8  31  16   8  31  29  10  29  38   9  29  19   9  36  12   8  34  28   8  24  71   6   7 134  18   6 139   4   1 152  10   3 162  17   3 152  12   1 117  14   6  16   3   4   4   1   1   6   2   1   6   2   1   6   2   1   7   2   1   3   1   0   4   0   0   6   2   1   7   3   2   2   1   0   6   1   1   6   2   0   7   3   0   7   3   0   8   3   0   8   3   0   6   3   0   7   2   1  12   2   1  27   1   2  41   1   2  61   5   3  74   3   4 112  11   4 121   6   2 139  10   3 145  13   4 146   7   2 170  13   9 184  22  38 149  13  44 143  17  41 101  26  56  53  18  48  29  15  46  17  11  42  16  11  41  13  10  39  16  13  42  16  13  42  13  10  39  14  11  40 
 15   9  32  15  10  31  12   9  30  13   8  31  16   8  32  19   7  30  14   6  35  12   7  36  11   7  32  17   8  29  78  13  17 136  13   4 144   6   1 152  10   2 157  16   4 142   4   1 147  13   4 101  11   5  20   5   4   7   3   2   6   3   1   8   2   2   8   3   2   6   3   0   6   2   0   7   3   1   8   4   3   5   2   0   6   2   0   6   2   0   7   3   0   6   2   0   7   2   0   7   3   0   7   3   0   7   2   0   8   4   1   7   3   0   7   2   0  15   2   1  27   2   3  42   3   3  88   6   6 128  13   6 141  11   1 144   8   3 165  15  22 182  23  50 154  24  50 143  26  53  73  17  47  34  16  46  22  13  46  17  12  42  15  11  41  15  11  40  15  12  41  15  12  41  14  11  40  15  12  41 
 15  10  32  15  11  32  12   9  30  12   8  31  16   9  32  17  10  35  13   8  38  11   6  36  19   9  34  61  13  24 114  17  10 132  10   2 135   8   2 130   7   2 126   5   2 142   9   5 154  14   4 145  12   3 104   7   4  25   5   6   4   2   3   8   2   2   6   2   0   5   2   0   7   3   0   7   3   1   7   3   2   7   3   0   7   3   0   7   3   0   7   3   0   6   2   0   7   3   0   8   4   1   7   3   0   7   2   0   9   4   1   8   3   0   8   4   1   9   2   0  12   3   2  27   5   3  51   2   2  95   2   1 138  10   3 149  12  10 103  11  35 111  24  54  76  18  42  98  21  45  83  24  51  29  14  45  20  12  45  17  12  42  17  12  42  17  12  42  15  12  41  15  12  41  16  13  42  15  12  41 
 15  10  31  16  11  33  14  11  32  11  11  32  14  11  33  14  10  35  12   8  34  14  11  34  20   8  33  44   6  21  81   5   8 120  10   2 120   5   3  99   0   1 106   3   2 132   6   2 135   7   1 144  12   4 140  12   2 136  17   6  55   4   4  35   6   4  42   8   9  31   8   9  13   4   2  13   4   3   8   4   2   5   1   0   7   2   0   6   2   0   6   4   1   7   6   2   7   4   3   8   4   2   7   2   1   6   2   1  11   2   1  16   4   3  22   5   2  50   3   4  95   9   7  93   9   4 108  11   4 124   7   3 137  10   3 155  20  16  88  17  38  29   7  35  74  36  64  47  12  37  59  23  51  31  14  45  18  13  44  19  12  43  18  11  42  18  12  42  17  12  42  17  12  42  16  11  41  18  11  42 
 15  10  34  14  11  33  12   9  31  12  10  32  14  10  33  14   9  35  12   8  33  11   7  31  17   8  31  33   7  27  86   9  12 118   6   3 123   6   2 121   4   3 125   4   2 131   5   2 125   3   3 145  15   2 149  15   3 143  11   2 142  11   3 143  16   5 126  17   9  84  15  14  64   8  10  81  12   8  66  12   7  39   5   5  25   5   4  13   5   3  14   5   3  15   4   4   6   4   3  11   3   3  37   4   3  53   6   4  70   9   4 109  13   6 132  11   5 129   9   2 137  15   3 132  15   3 136  15   2 135  10   2 135   8   2 128  15  22  59  15  41  28  17  49  30  11  43  42  22  50  30  15  46  26  15  46  23  14  46  19  12  43  17  12  42  17  13  43  17  12  42  16  11  41  15  11  40  16  11  40 
 15  10  33  14  12  34  13   9  32  13   9  32  13   9  32  14   8  34  14   9  32  18   8  33  27   8  32  51  10  29 108  11  10 130  10   2 136  10   2 140   7   3 142   8   2 139   6   2 132   6   3 132   5   1 141   9   2 137   6   2 137  10   2 137  11   3 127   8   1 119  12   4  99   7   5 119  11   3 139  18   4 124  16   8 110  12   7  94   8   6 102  13   7 105   9   6  80   5   4 103  11   7 135  12   5 142   7   4 155  16   4 154  15   2 147  11   2 145  10   2 144  12   3 128   7   2 133  12   2 134   9   2 142  19   8 111  16  31  50  16  45  24  14  49  22  12  45  34  19  51  21  13  47  21  14  44  20  13  44  21  14  45  18  13  43  17  12  42  18  13  43  17  11  42  15  10  40  14  10  37 
 16  12  35  16  12  35  14  10  33  14   9  32  14   9  32  12   8  34  13   8  32  19   6  30  40   9  31  81  15  24  92  11   5  98   4   3 113   3   4 134  10   3 141  10   2 135   5   3 130   5   2 127   5   2 131   6   2 127   3   3 123   6   2 129   8   1 132  17   7 120  11   5 102   5   3 104   7   1 123  12   5 133  18   4 137  19   4 136  14   3 137  15   5 142  17   3 135  12   2 143  11   3 150  12   3 146   9   3 146  12   2 150  16   2 153  16   4 149  11   1 143  11   4 127   6   1 128  10   2 133   7   1 140  11   6 100  14  28  33  13  48  22  16  51  20  14  50  22  13  49  19  14  47  19  15  46  18  14  45  20  15  45  19  14  44  18  13  43  17  12  42  17  13  42  16  13  42  13  13  41 
 16  12  35  15  11  34  13   9  32  13   8  31  13   8  31  15   6  34  14   7  31  18   5  29  46  13  25  54   8  18  53   7  19  84   7  11 109  12   9 113   6   2 132  12   3 127  11   5 127  13   6 108   4   1 118   9   2 134  16   5 122   9   2 127  12   3 123   8   2 119   9   4 109   6   2  96   3   2  93   4   2  91   0   1 113   5   1 129  13   4 129  13   5 131  10   1 140  14   2 143  11   2 145  11   2 136   7   2 131  15   4 120   5   2 127   5   2 142  12   4 141   9   2 131   9   1 118  10   4 115   6   6 140  18  10 105  16  25  23  12  45  13  14  51  18  15  49  20  16  50  15  14  46  16  15  46  16  14  45  17  13  43  18  14  44  18  13  43  17  12  42  18  13  43  17  14  43  13  12  40 
 16  12  37  13   9  35  13   9  34  13   8  31  13   8  31  14   8  34  17   9  34  23  11  32  27  10  31  36   8  25  55   7  21  97  12  11  95  15  14  96  13  13 110   8   2 104   5   1  96   0   2  93   2   2 115  13   5 113   6   3 114   5   3 120   8   3 132  13   4 113   6   3 109   3   3 106   5   3 103   9   5  92   3   2 104   6   1 121  15   5 103   2   1 113   4   2 135  12   3 144  16   3 134   7   1 125   7   1 112   5   3 101   2   3 105   1   1 125   7   1 139  11   2 136  16   5 125  23  14  92  17  26 114  15  17 122  17  18  33  13  44  13  15  49  16  17  50  14  16  46  13  14  45  13  13  44  16  14  45  16  15  47  17  15  45  17  14  43  17  14  43  17  14  43  16  13  43  15  13  41 
 16  12  41  15  10  39  15  11  38  12   8  35  13   9  35  16  12  37  20  12  39  20   9  36  14   9  31  27  10  30  54  12  24  77   9  11  53   5  16  56   5  16  84   7  11 107   9   8  96   3   1  89   2   2  94   5   2 103   7   5  94   3   2 106   2   2 123   6   3 121  10   4 119  11   7 107   9   5  81   3   3  77   1   2  91   4   2 108   8   5 121  11   5 131  16   6 133  17   3 125   7   2 127   7   2 122   8   2 113   4   1 112   2   1 116   3   1 132  10   1 141  12   2 105  14  15  54  14  37  49  19  44  59  14  42 130  18  16  57  15  39  14  14  48  13  17  52  13  17  50  13  14  45  15  12  42  16  12  43  15  14  45  15  13  43  16  13  42  18  14  43  18  14  44  15  14  42  11  12  41 
 14   9  39  15  10  39  15  11  38  14   9  40  14   9  41  16  11  40  16  11  41  14   9  39  13   8  36  14   8  33  22   6  28  29   7  24  45  11  25  64  17  24  97  20  19 101   8   5 107  10   5  92   3   1  83   3   3  98  10   6  92   3   2 107   6   4 124  11   3 117   9   4  96   3   2  78   2   2  69   1   1  80   2   1  93   2   1 103   6   2 101   3   1  95   1   2  98   1   2 109   2   2 120   2   2 117   4   2 122   6   2 133  13   1 136  10   1 151  14   2 143   5   2 120  13  16  44  16  43  21  14  47  25  16  49  96  29  42  73  22  40  33  23  55  18  19  56  14  15  50  14  16  47  16  15  44  16  15  44  14  13  45  15  13  42  16  13  42  14  14  42  15  14  43  14  13  41  11  12  42 
 14  12  40  15  11  41  14  10  40  14   9  41  14   9  41  16  11  43  15  12  42  14  11  40  16  11  41  15  10  40  13   9  38  14   7  36  19   8  31  25   8  31  28   4  29  83   4   6 100   8   4 104   7   3  90   2   1 103   7   4  98   2   2 102   3   2 108  11   5  92   8   5  75   4   4  80   3   3  98   5   4  99   3   1 106   8   4 102  11   5 100  13   8 100   6   5 105   5   2 106   2   1 117   4   2 116   4   3 113   4   1 138  13   3 150   7   2 174  20   3 165  15   4 151   8   8  98  16  32  24  12  44  20  17  48  50  18  39  48  16  42  22  13  47  21  18  55  13  15  49  16  14  46  13  14  44  13  14  44  13  14  44  12  13  41  14  14  42  16  12  42  14  11  41  12  11  42  11  11  39 
 16  13  42  15  12  41  14  12  40  13  10  41  15  11  42  16  12  43  17  13  43  15  11  42  14   9  40  14  10  40  16  12  42  15  10  40  13   9  39  14  10  41  40   9  35 112  19  11  97   2   2 119  11   5 107   4   2 112  13   6 107   7   2 116  16   5  70   3   2  54   3   3  45   3   2  58   6   4 120  21   9 102   2   2  88   2   2  82   4   4  75   1   1 100   5   2 116   9   6 109   5   2 113  10   3  88   3   1 103   2   1 140  10   3 162  10   3 185  22   3 187  23  13 174  15  23 144  16  34  32  13  44  21  16  48  51  20  47  38  18  49  16  13  48  14  15  50  11  14  48  14  15  48  13  14  45  13  14  43  12  13  42  14  14  42  15  15  42  15  12  41  13  11  41  12  11  42  10   9  39 
 16  13  42  15  12  41  14  11  40  13  10  41  13  10  41  15  12  43  16  12  43  16  11  43  15  10  42  15  10  41  15  10  40  16  11  41  16  12  42  34  13  44  95  14  28 132  20   8 122   5   1 130  10   1 118   2   2 105   5   3  91   2   1 108  10   4  75   3   3  43   1   2  35   2   1  41   4   4  95  15   6 137  26  11  90   3   2  96   6   4  87   3   2 107   8   3 115   5   2 114   7   2 101   5   1  88   2   1 114   2   2 152   9   1 170  14   1 186  18   2 177  10  16 146  10  22 113  23  41  39  12  43  31  13  45  72  29  55  33  20  49  14  15  49  13  13  49  14  14  49  14  14  49  13  12  45  16  16  45  14  14  42  17  14  43  18  14  43  15  12  41  13  11  41  12  11  42  12  11  42 
 14  13  41  15  10  41  15  12  43  14  11  42  15  12  43  15  11  43  14  11  42  16  11  43  17  12  42  16  11  41  17  12  42  17  11  41  24  11  44  70   9  34 140  16   8 144  16   2 129   4   3 136  13   4 144  18   7 123   3   2 115  10   3 128  11   5 144  21   6 102   8   2  68   5   3  56   2   2  76   3   1 106   6   2 123  24  13 120  15   6 123  20   9 115  21  10 107  15   7 114  11   7  97   4   4  91   2   2 138   9   3 161  13   3 174  13   2 185  18   3 175  16  17  93   8  31  57  16  47  63  17  51 104  44  76  72  25  54  19  14  45  13  16  50  13  13  49  15  15  50  14  15  46  15  14  45  15  14  45  17  14  45  16  11  42  16  11  41  16  11  41  14   9  39  16  11  41  15  12  41 
 13  13  41  14  12  41  14  11  41  15  12  43  17  13  44  15  11  43  15  11  43  18  13  45  17  12  42  17  12  42  16  11  41  20  11  43  39  10  36 118  14  19 152  14   0 148  17   3 130   6   2 127   4   1 136   4   2 150  14   3 143  13   2 140   6   2 152  11   1 161  19   4 135  10   3 123  16   6 116  12   5 110  11   7 105   5   4 113  13   8  79   4   5  55   0   1  88   4   4 125  10   4 118   9   4 112   4   4 140  11   2 160  12   2 175  18   3 193  23   3 199  30   6 178  31  22 106  26  54  98  29  56  63  17  48  37  16  49  17  19  53  15  19  56  15  15  51  17  17  52  16  16  47  15  14  45  15  14  45  16  13  44  15  11  41  18  13  43  16  11  41  16  11  41  17  11  41  15  11  40 
 16  13  42  15  13  41  14  11  40  15  12  41  18  11  42  18  12  45  16  12  44  19  12  45  16  12  44  16  14  46  15  11  43  28   9  42  56  11  30 136  20   7 140  11   2 132   8   1 116   4   2 120   4   3 150  12   4 160  19   5 140   7   2 148  14   3 148   8   2 159  10   2 152  13   3 126   6   2 111   5   3 114  10   6 119  14   7 104  11   7  72   8   7  71   8   7 111  15  11 124  10   3 132  12   3 118   4   2 124   4   2 153  15   3 157  12   4 186  27   5 197  28   3 196  30   2 182  36  21 133  23  49  97  28  65  39  20  57  20  19  54  18  18  53  15  15  51  16  16  50  13  14  45  15  16  48  16  17  48  14  14  44  17  13  43  17  12  42  18  13  43  15  10  40  15  10  40  16  11  41 
 18  13  43  17  13  42  16  13  42  16  13  44  16  12  43  17  14  45  17  12  43  19  13  43  16  12  43  17  14  45  19  11  43  40  12  42  49  10  29 115  15  11 131   9   3 110   1   1 105   7   3  92   5   2 140  11   3 170  23   4 130   5   3 144  12   2 151   5   3 162  12   1 162  22   2 129   6   3 118   7   4 108   4   3 111   9   3 116  10   5 109  13   8 113  13   6  97   4   4 114   7   3 141  14   2 146  26  16 103   3   2 134  13   3 160  25   6 138   8   3 159  16   2 183  22   3 189  26   2 187  27  12 189  32  16 154  24  38  45  17  53  19  16  52  17  18  53  13  17  50  13  15  47  14  15  46  14  15  45  14  13  44  17  14  42  18  14  41  18  13  43  17  12  42  15  10  40  16  11  41 
 19  14  44  18  13  43  15  12  41  15  12  43  14  11  42  13  14  44  15  13  43  22  13  45  32  17  48  26  11  43  31  13  44  69  23  49  91  11  32 140  15   8 143  13   3 114   4   2 111  11   5  80   4   3 128   8   3 175  25   5 151  10   3 145   6   2 165  12   2 168  17   2 164  18   3 146   8   3 150  17   3 126   8   3 138  18   5 145  25   8  99   3   3 130  15   4 139  17   6 136  13   4 149  16   4 141  11   4 104   5   4 111   6   3 148  20   4 144  20   8 116   2   3 142  13   3 162  19   3 173  14   3 184  14   2 195  21   9 132  22  46  41  20  56  23  15  49  21  15  47  22  17  49  14  14  45  12  13  43  13  12  43  17  14  41  18  14  41  17  12  42  17  12  42  17  12  42  15  10  40 
 17  14  43  16  13  42  16  13  42  16  13  44  16  13  44  14  14  45  15  13  44  20  12  45  26  14  41  47  22  45  67  20  40 102  11  28 146  15   0 150  14   1 141  10   2 127   7   2 102   7   3  69   2   4 134  15   4 172  21   3 161  13   2 154   9   2 170  19   3 173  20   2 158  14   2 148   7   2 154  13   3 133   2   3 146  14   3 149  14   2 116   6   2 130   9   4 165  23   4 161  17   3 155  15   4 164  28   8 122  10   4 114   5   2 135  12   2 151  24   7 113   5   3 108   5   3 120   3   2 146  13   5 174  20   2 205  33   1 216  27   3 124  19  36 114  23  41 146  30  42 145  33  41  86  29  50  25  15  47  13  12  40  16  12  42  17  12  42  17  12  42  16  11  41  16  11  41  13   9  36 
 16  14  42  17  13  42  18  14  43  17  13  44  16  13  43  15  13  43  14  12  43  15  13  44  17  13  44  26  12  42  98  20  32 141  16   2 146  12   2 141  11   2 130   9   4 106   6   3  68   2   1  61   4   4 136  15   6 165  15   4 155   9   2 159  12   4 164  13   3 166  14   2 147   9   2 142   7   3 158  18   4 130   3   2 145  10   2 156  13   3 156  14   3 153  11   2 160  18   2 163  19   3 162  14   3 172  23   4 165  27   6 139  17   7 127  10   4 136  19   8 113  13   7 105  10   8 112  10   4 114   6   4 136   9   1 184  23   3 203  32   3 190  19   4 197  26   0 175  23   4  86  16  26  59  23  46  47  24  49  15  11  42  16  12  40  16  12  40  15  13  42  15  13  42  15  12  41  13  10  36 
 15  15  43  17  12  42  17  12  42  18  13  43  18  13  43  15  13  41  15  12  42  17  12  44  17  14  45  35  13  50 111  17  29 151  20   4 149  15   2 137   9   2 112   5   2  69   1   1  45   1   2  65   4   3 139  14   5 156  11   2 158   8   2 164   9   3 163  11   2 152  10   2 128   8   2 143  12   2 157  18   2 127   3   2 159  25   3 160  12   2 175  18   3 168  17   5 152  11   1 157  19   2 172  25   4 172  21   1 171  21   2 170  31   9 132  12   6 124  17  11 103  11   9  90   5   5 106   9   7 100   4   3 102   3   1 162  21   3 192  32   3 187  22   2 179  17   2 161  17  17  53  11  46  18  17  49  18  15  44  14  11  40  13  11  38  15  12  39  12  12  40  12  13  41  13  12  41  15  12  39 
 18  13  43  17  12  42  17  12  42  18  14  43  15  14  42  16  13  42  17  12  42  17  12  42  23  14  44  65  19  40 128  16  10 150  15   2 152  11   2 153  18   4 105   7   3  55   3   2  41   2   1  77   8   3 146  17   4 146   3   2 165  16   3 173  15   3 167  12   2 149  14   1 125   5   2 156  19   4 161  19   2 131   2   1 162  21   7 158  10   3 173  20   2 170  17   2 146   9   3 136   8   2 163  17   3 173  26   4 163  16   3 152  14   6 152  25   7 122  12   2 100   6   4  92   7   4 107  12   8 107   5   4 111   5   2 132  12   4 170  21   3 186  30   4 179  12   2 197  29   8 174  34  52  40  19  50  17  15  47  13  12  44  13  13  42  12  12  40  12  12  40  14  13  41  16  12  41  14  11  40 
 17  13  42  17  12  41  16  12  41  15  11  41  15  13  41  15  12  36  15  11  39  16  11  41  34  16  42  91  19  32 138  18   5 156  16   2 158  14   1 154  18   3 101   7   3  52   3   1  41   3   1  85  10   5 134  11   3 140   6   2 171  22   4 181  21   3 178  20   1 154  20   4 125   7   3 155  15   4 165  19   3 139   2   3 150  10   2 166  18   5 170  20   3 164  14   3 151  11   1 133  12   4 145  11   4 157  14   2 160  23   6 150  16   4 148  16   3 142  18   5 121  12   2 101   7   4 109   7   3 122  11   3 131  16   5 133  12   5 149  13   1 185  26   2 195  20   1 209  31   0 188  20  24 100  23  55  41  22  53  13  13  44  14  12  41  14  11  40  12  13  41  15  13  42  16  13  42  14  12  38 
 16  12  39  15  12  39  13  11  37  14  11  38  14  11  38  14  10  35  13   8  35  23  12  39  52  20  43  87  16  31 146  19   8 161  17   3 164  15   2 156  14   2 108   9   1  49   1   3  44   3   3  89  13   8 120   8   3 151  12   3 163  11   2 177  17   2 179  26   2 139   9   2 147  17   5 154   9   2 165  17   3 148   5   2 150   9   2 164  19   4 158  13   2 156   8   1 163  18   2 150  18   5 134   8   4 145  12   3 156  19   3 150  17   4 136  12   1 137  12   1 136  15   2 123   9   4 120  10   4 120   8   3 126  10   2 132  11   3 150  19   5 171  15   3 195  23   2 217  33   2 213  32   8 203  30  30 127  20  37  39  16  44  16  13  40  13  13  41  13  14  42  17  14  43  16  13  42  14  11  41 
 15  12  39  15  12  39  14  11  38  14  12  36  14  12  36  14  10  35  15  10  38  28  14  39  41  14  38 112  19  25 157  20   2 165  19   4 157   9   2 164  13   3 106   7   3  44   1   2  44   3   4  84  10   9 123  13   5 153  13   2 162   9   0 173  15   2 173  23   3 144   5   2 156  16   4 160  16   5 160  13   4 153   8   2 155  14   4 141  12   3 132   5   3 158  12   3 170  20   2 148   7   2 145  11   2 145   8   2 155  16   2 153  20   4 129   8   1 128   7   1 137  14   1 131  12   3 140  24   5 118   6   1 121   6   3 150  20   6 160  20   4 156  11   4 172  13   2 204  28   4 213  29   6 211  32  10 185  28  14 121  33  45  24  14  39  13  12  41  15  15  43  15  14  43  15  12  41  15  12  41 
 14  11  38  14  11  38  14  11  38  14  12  36  14  12  36  13   9  34  17  10  38  28  11  37  82  15  38 151  18  14 161  18   1 160  16   3 153   7   1 161  13   1 104   7   3  43   1   1  37   2   1  80   6   5 121   9   4 148  11   1 161  12   1 172  18   3 174  17   4 153   6   2 152  12   1 162  19   5 156  10   3 165  17   7 161  19   2 130  18   7 122   6   2 152  10   2 169  25   2 148  10   4 140   8   3 151  15   2 156  17   3 153  20   3 129   8   1 131  11   3 129  13   2 116  12   4 126  19   8 128  14   4 130  11   2 150  14   4 156  13   2 157  14   3 149  10   1 176  23   5 198  25   3 212  31   8 207  36  18 179  41  37  63  20  40  15  11  41  13  13  41  14  13  41  15  12  41  15  12  41 
 13  11  35  14  12  37  13  11  38  16  14  38  16  14  38  14   9  38  21  10  37  52  17  41 128  20  21 146  14   2 155  14   3 149   5   2 158  13   3 162  13   2 106   7   3  48   2   1  38   1   1  70   3   3 116  12   5 137  12   3 151   9   1 169  16   4 170  16   2 162  11   2 147  11   1 152  16   5 159  11   3 173  23   6 163  18   3 138  12   4 143  16   3 140   6   3 160  21   3 160  18   3 147   7   2 149  13   2 155  19   4 155  21   3 148  20   4 142  19   3 135  17   2 122  14   5 106  11  15 124  13   5 139  17   2 140  12   1 137  10   1 147  14   2 128   5   2 141   9   2 192  35   5 203  34   2 199  29   9 191  37  22  95  18  40  19  11  38  11  12  40  13  12  40  15  12  41  15  12  41 
 13  11  35  12  11  36  11  12  38  16  13  37  17  13  38  19  10  38  28  11  34  84  17  28 132  15   3 149  15   3 150   9   1 145   4   2 161  11   3 159  15   3 105   6   3  57   2   2  43   1   1  64   3   3  95   6   5 109   2   3 146  11   3 165  13   3 173  18   3 164  15   1 141   9   2 138   6   2 162  12   3 171  20   5 155  10   2 143   8   4 150  12   4 152   5   2 160  16   3 161  13   3 160  14   3 152  14   1 155  15   4 155  14   2 162  22   5 155  16   2 142   7   2 143  11   2 145  19   6 138  16   6 137  19   5 135  15   3 136  16   3 136  18   2 113   2   1 139   9   3 182  30   2 195  34   3 191  28   4 195  34   7 159  21  32  44  18  46  10  11  40  12  12  38  14  11  40  16  12  42 
 13  11  35  13  11  36  12  12  38  16  13  37  17  12  37  29  11  31  60  15  29 116  14   8 138  12   2 149  11   3 155  11   3 152   6   2 164  14   3 155  13   3 104   6   2  54   2   4  46   2   2  61   2   3  79   3   4  92   1   1 132   6   1 159   6   3 172  15   3 168  16   3 153  11   2 143   4   1 163  19   5 159   8   3 154  13   2 142   5   1 134   4   1 157  14   3 162  13   3 154  19   4 152  15   4 162  22   3 154  12   3 158  17   5 157  16   2 155  13   3 156  16   4 158  19   3 149  13   2 141  14   1 136  16   4 127  16   4 126  12   2 116  10   3 118   8   5 150  18   3 176  21   3 179  26   2 186  28   1 190  24   3 196  25  14 169  28  43  79  24  47  17  12  40  12  10  39  15  10  40 
 14  12  36  14  11  36  14  11  38  15  11  36  26  10  31  52  12  25 100  15  15 145  22   4 144   9   2 148   9   3 164  14   3 158  10   2 158   7   4 157  11   3 113   7   2  58   1   1  49   3   1  51   2   1  67   2   3  85   2   2 137  10   5 159  10   3 166  13   3 170  15   3 174  29  10 155   6   2 164  17   4 151   4   2 165  16   3 151  10   4 120   3   3 146  13   3 165  22   4 149  21   7 138   8   2 161  17   2 167  24   2 162  23   3 157  22   4 150  14   2 153  16   3 156  16   2 153  16   2 150  18   3 137  16   8 125  18  12 121  17   8 125  15   7 129   9   1 162  23   4 160  15   1 156  16   1 171  19   1 185  21   3 196  26   8 197  33  13 133  17  28  44  17  38  19  13  40  17  12  42 
 13  10  35  13  10  33  16   9  32  25   9  29  47  11  21  89  11  14 130   8   3 159  19   3 153  10   3 149   8   4 157  13   3 151  10   3 156   8   3 158  12   2 111   6   3  73   6   5  52   2   1  56   4   3  63   2   2  87   3   2 140  10   4 152   6   2 168  15   3 167  14   2 167  16   3 162  10   3 164  14   3 156   6   2 173  22   3 153  13   2 125   4   1 138   3   1 169  26   3 145  15   4 137   5   3 161  13   4 170  22   4 162  19   1 161  22   4 155  17   3 149  16   4 156  20   5 151  15   3 148  16   3 141  15   5 114  12  22 103  12  26 132  17   8 149  23   5 152  18   3 140   9   2 121   2   2 159  20   4 187  33   3 187  25   3 186  26  23 134  17  38  82  25  43  31  15  39  19  13  42 
 11   7  33  12   7  29  22   6  27  41  11  19  75   7  12 124  14   4 149  12   3 163  19   4 152   6   2 159  15   4 134   8   2 126   3   3 150   8   2 159  15   4 109   3   1  82   4   3  67   4   3  59   3   2  63   2   2  82   3   3 138  15   8 150   6   1 168  17   3 163  11   3 162   9   2 163  11   2 164  14   3 160  10   4 173  26   4 149  10   3 131   4   3 150   9   3 165  19   4 147  16   4 141  12   2 163  19   3 163  15   3 163  18   2 162  21   4 166  28   9 162  27   9 160  23   6 160  19   5 147  12   2 138  14   8 135  16   7 134  22  16 134  17  12 145  22   8 143  15   3 138  10   2 131  11   3 142  16   5 164  19   3 184  29   3 182  17   6 164  25  16 101  23  32  45  17  40  21  12  41 
